<?xml version="1.0" encoding="UTF-8"?>
<svg id="_레이어_1" data-name="레이어 1" xmlns="http://www.w3.org/2000/svg" viewBox="0 0 283.82 122.29">
  <defs>
    <style>
      .cls-1 {
        fill: #2ca339;
      }

      .cls-1, .cls-2 {
        stroke-width: 4px;
      }

      .cls-1, .cls-2, .cls-3, .cls-4 {
        stroke-miterlimit: 10;
      }

      .cls-1, .cls-3 {
        stroke: #2ca339;
      }

      .cls-5 {
        fill: #143e69;
      }

      .cls-2, .cls-4 {
        fill: #026636;
        stroke: #026636;
      }

      .cls-3 {
        fill: none;
        stroke-width: 5px;
      }

      .cls-4 {
        stroke-width: .5px;
      }
    </style>
  </defs>
  <g>
    <path class="cls-4" d="M52.8,121.13c0,.21-.06.38-.17.51-.11.13-.29.19-.54.19s-.41-.06-.53-.19c-.12-.12-.18-.29-.18-.51v-8.54c0-.44-.06-.85-.18-1.23-.12-.38-.29-.7-.52-.97-.23-.27-.51-.48-.86-.63-.34-.15-.74-.23-1.19-.23s-.85.07-1.18.23c-.34.15-.62.36-.86.63-.23.27-.41.59-.53.97-.12.38-.18.79-.18,1.23v8.54c0,.21-.07.38-.2.51-.13.13-.32.19-.56.19s-.43-.06-.56-.19c-.13-.12-.2-.29-.2-.51v-8.73c0-.6.1-1.16.29-1.67.19-.51.47-.95.83-1.32s.79-.66,1.29-.87c.5-.21,1.07-.31,1.69-.31.41,0,.81.05,1.2.16.38.11.73.26,1.05.47.32.21.6.46.84.75.24.3.41.63.53,1.01.11-.38.29-.71.53-1.01.24-.29.52-.55.84-.75.32-.21.68-.37,1.07-.47.39-.11.79-.16,1.21-.16.62,0,1.18.1,1.69.31.51.21.95.5,1.31.87.36.37.64.81.83,1.32.2.51.29,1.06.29,1.67v8.75c0,.21-.07.38-.2.51-.13.12-.32.19-.56.19-.25,0-.45-.06-.57-.19-.13-.12-.19-.29-.19-.51v-8.56c0-.44-.06-.85-.18-1.23-.12-.38-.3-.7-.53-.97-.23-.27-.52-.48-.87-.63-.35-.15-.75-.23-1.2-.23s-.85.07-1.19.23c-.34.15-.63.36-.86.63-.23.27-.41.59-.53.97-.12.38-.18.79-.18,1.23v8.54Z"/>
    <path class="cls-4" d="M70.45,108.99c0-.21.07-.39.2-.54.14-.14.32-.22.56-.22s.42.07.56.22c.14.14.2.32.2.54v2.9c0,1.38-.35,2.51-1.05,3.39-.7.88-1.72,1.39-3.06,1.54v4.24c0,.21-.07.39-.21.54-.14.14-.32.22-.56.22-.25,0-.44-.07-.57-.22-.13-.14-.2-.32-.2-.54v-4.24c-1.36-.15-2.39-.67-3.08-1.54-.7-.88-1.05-2.01-1.05-3.39v-2.9c0-.21.07-.39.2-.54.14-.14.32-.22.56-.22s.42.07.56.22c.14.14.2.32.2.54v2.66c0,1.28.27,2.26.82,2.92.55.67,1.4,1,2.54,1s1.99-.33,2.53-1c.54-.67.81-1.64.81-2.92v-2.66Z"/>
    <path class="cls-4" d="M80.8,108.23c1.02,0,1.94.18,2.78.55.83.36,1.55.86,2.15,1.49.6.63,1.06,1.36,1.38,2.2.33.84.49,1.73.49,2.67s-.16,1.83-.49,2.67c-.33.84-.79,1.57-1.38,2.2-.6.63-1.31,1.12-2.15,1.49-.84.37-1.76.55-2.78.55s-1.95-.18-2.79-.55c-.84-.37-1.56-.86-2.16-1.49-.6-.63-1.06-1.36-1.38-2.2-.33-.84-.49-1.72-.49-2.67s.16-1.83.49-2.67c.33-.84.79-1.57,1.38-2.2.6-.63,1.32-1.12,2.16-1.49.84-.37,1.77-.55,2.79-.55ZM80.8,120.73c.79,0,1.51-.14,2.15-.42.64-.28,1.2-.66,1.66-1.16.47-.5.83-1.09,1.08-1.78.25-.69.38-1.43.38-2.24s-.13-1.55-.38-2.24c-.25-.69-.61-1.28-1.08-1.79-.47-.5-1.02-.89-1.66-1.17-.64-.28-1.36-.42-2.15-.42s-1.5.14-2.14.42c-.65.28-1.21.67-1.67,1.17-.47.5-.83,1.1-1.09,1.79-.26.69-.39,1.43-.39,2.24s.13,1.55.39,2.24c.26.69.62,1.28,1.09,1.78.46.5,1.02.88,1.67,1.16.65.28,1.36.42,2.14.42Z"/>
    <path class="cls-4" d="M89.88,109.97c0-.56.1-.96.31-1.19.2-.22.6-.34,1.18-.34h3.3c.6,0,1.15.1,1.65.31s.92.49,1.28.86c.36.36.63.81.83,1.33.19.52.29,1.09.29,1.7s-.1,1.18-.29,1.69c-.2.51-.47.95-.83,1.32-.36.37-.79.65-1.28.86-.5.21-1.05.31-1.65.31h-3.26v4.26c0,.21-.07.39-.2.54-.13.14-.32.22-.57.22-.24,0-.42-.07-.56-.22-.14-.14-.21-.32-.21-.54v-11.11ZM91.4,115.51h3.03c.43,0,.81-.07,1.15-.22.34-.14.63-.35.87-.61.24-.26.42-.56.55-.92.13-.35.19-.73.19-1.13s-.06-.8-.19-1.15-.31-.66-.55-.92c-.24-.26-.53-.46-.87-.61-.34-.14-.72-.22-1.15-.22h-3.03v5.77Z"/>
    <path class="cls-4" d="M104.43,120.53c.22,0,.38.06.5.19.12.13.17.28.17.45,0,.19-.06.35-.17.47-.11.13-.28.19-.49.19h-3.84c-.2,0-.36-.06-.48-.19-.12-.12-.18-.28-.18-.47,0-.18.06-.33.18-.45.12-.12.28-.19.49-.19h1.22v-10.79h-1.14c-.2,0-.37-.06-.49-.19-.12-.12-.18-.28-.18-.46,0-.17.06-.33.18-.45.12-.13.28-.2.48-.2h3.69c.21,0,.38.06.49.2.11.13.17.28.17.45,0,.19-.06.34-.17.46-.11.12-.28.19-.5.19h-1.12v10.79h1.2Z"/>
    <path class="cls-4" d="M108.15,121.32c-.14.46-.45.62-.92.47-.25-.06-.42-.18-.51-.35s-.1-.36-.04-.56l3.13-10.05c.29-.93.65-1.6,1.08-2,.43-.4,1.02-.6,1.76-.6.69,0,1.27.2,1.74.61.46.41.83,1.07,1.09,1.99l2.94,10.05c.06.19.04.37-.06.55-.1.18-.26.3-.47.36-.24.06-.44.05-.59-.03-.16-.08-.27-.23-.33-.44l-1.11-3.77h-6.54l-1.17,3.77ZM112.65,109.53c-.33,0-.59.12-.79.38-.2.25-.4.68-.58,1.29l-1.58,5.09h5.79l-1.49-5.09c-.18-.61-.36-1.03-.55-1.29-.19-.25-.45-.38-.79-.38Z"/>
    <path class="cls-4" d="M134.43,121.13c0,.21-.06.38-.17.51-.11.13-.29.19-.54.19-.24,0-.41-.06-.53-.19-.12-.12-.18-.29-.18-.51v-8.54c0-.44-.06-.85-.18-1.23-.12-.38-.29-.7-.52-.97-.23-.27-.51-.48-.85-.63-.35-.15-.74-.23-1.19-.23s-.85.07-1.18.23c-.34.15-.62.36-.85.63-.23.27-.41.59-.53.97-.12.38-.18.79-.18,1.23v8.54c0,.21-.07.38-.2.51-.13.13-.32.19-.56.19s-.43-.06-.56-.19c-.13-.12-.2-.29-.2-.51v-8.73c0-.6.1-1.16.29-1.67.2-.51.47-.95.83-1.32.36-.37.79-.66,1.29-.87.5-.21,1.07-.31,1.7-.31.41,0,.81.05,1.2.16.38.11.73.26,1.05.47.32.21.6.46.84.75.24.3.41.63.53,1.01.11-.38.29-.71.53-1.01.24-.29.52-.55.84-.75s.68-.37,1.07-.47c.39-.11.79-.16,1.21-.16.62,0,1.18.1,1.69.31.51.21.95.5,1.31.87.36.37.64.81.83,1.32.2.51.29,1.06.29,1.67v8.75c0,.21-.07.38-.2.51-.13.12-.32.19-.56.19s-.45-.06-.57-.19-.19-.29-.19-.51v-8.56c0-.44-.06-.85-.18-1.23-.12-.38-.3-.7-.53-.97-.23-.27-.52-.48-.87-.63-.35-.15-.75-.23-1.2-.23s-.85.07-1.19.23c-.34.15-.63.36-.86.63-.23.27-.41.59-.53.97-.12.38-.18.79-.18,1.23v8.54Z"/>
    <path class="cls-4" d="M144.88,121.32c-.14.46-.45.62-.92.47-.25-.06-.42-.18-.51-.35s-.1-.36-.04-.56l3.13-10.05c.29-.93.65-1.6,1.08-2,.43-.4,1.02-.6,1.76-.6.69,0,1.27.2,1.73.61.46.41.83,1.07,1.09,1.99l2.94,10.05c.06.19.04.37-.06.55-.1.18-.26.3-.47.36-.24.06-.44.05-.59-.03-.16-.08-.27-.23-.33-.44l-1.11-3.77h-6.54l-1.17,3.77ZM149.39,109.53c-.33,0-.59.12-.79.38-.2.25-.4.68-.58,1.29l-1.58,5.09h5.79l-1.49-5.09c-.18-.61-.36-1.03-.55-1.29-.19-.25-.45-.38-.79-.38Z"/>
    <path class="cls-4" d="M165.91,113.74c0-.63-.08-1.2-.24-1.72-.16-.52-.39-.96-.69-1.33-.3-.37-.68-.66-1.13-.86s-.98-.3-1.59-.3-1.13.1-1.59.3c-.45.2-.83.49-1.13.86-.3.37-.53.81-.69,1.33-.16.52-.24,1.09-.24,1.72v7.39c0,.21-.07.38-.21.51-.14.13-.32.19-.56.19s-.42-.06-.56-.19c-.14-.12-.21-.29-.21-.51v-7.64c0-.77.12-1.47.37-2.12.24-.65.59-1.2,1.04-1.67.45-.46.99-.83,1.63-1.09.63-.26,1.35-.38,2.14-.38s1.5.13,2.14.38c.63.26,1.18.62,1.63,1.09.45.46.8,1.02,1.04,1.67.24.65.37,1.36.37,2.12v7.64c0,.21-.07.38-.21.51-.14.13-.32.19-.56.19s-.42-.06-.56-.19c-.14-.12-.21-.29-.21-.51v-7.39Z"/>
    <path class="cls-4" d="M170.85,121.32c-.14.46-.45.62-.92.47-.25-.06-.42-.18-.51-.35-.09-.17-.1-.36-.04-.56l3.13-10.05c.29-.93.65-1.6,1.08-2,.43-.4,1.02-.6,1.76-.6.69,0,1.27.2,1.74.61.46.41.83,1.07,1.09,1.99l2.94,10.05c.06.19.04.37-.06.55-.1.18-.26.3-.47.36-.24.06-.44.05-.59-.03-.16-.08-.27-.23-.33-.44l-1.11-3.77h-6.54l-1.17,3.77ZM175.35,109.53c-.33,0-.59.12-.79.38-.2.25-.4.68-.58,1.29l-1.58,5.09h5.79l-1.49-5.09c-.18-.61-.36-1.03-.55-1.29-.19-.25-.45-.38-.79-.38Z"/>
    <path class="cls-4" d="M195.38,114.74c.43,0,.64.19.64.56v.64c0,.77-.14,1.52-.42,2.24-.28.73-.7,1.38-1.25,1.95-.55.57-1.23,1.03-2.05,1.38-.81.35-1.74.52-2.78.52s-2.02-.19-2.87-.58c-.84-.38-1.56-.89-2.15-1.53-.59-.63-1.04-1.37-1.36-2.2-.31-.83-.47-1.7-.47-2.6s.16-1.78.47-2.61c.31-.84.76-1.57,1.35-2.21.58-.63,1.3-1.14,2.14-1.52.84-.38,1.79-.56,2.85-.56.64,0,1.21.05,1.71.15.5.1.94.23,1.34.4.4.17.75.36,1.07.59.31.22.62.47.92.73.14.13.2.27.2.43,0,.16-.06.3-.16.42-.1.12-.23.21-.38.24-.15.04-.3,0-.45-.11-.25-.2-.52-.39-.79-.58-.28-.19-.58-.35-.92-.49-.33-.14-.71-.25-1.12-.34-.42-.09-.89-.13-1.42-.13-.79,0-1.51.14-2.15.43-.64.28-1.2.67-1.66,1.17-.47.5-.83,1.09-1.08,1.78-.25.69-.38,1.43-.38,2.22s.12,1.51.37,2.19c.25.68.6,1.27,1.07,1.78.47.51,1.02.91,1.67,1.2.65.29,1.38.44,2.2.44s1.48-.13,2.09-.4c.61-.27,1.13-.62,1.57-1.05.44-.44.77-.94,1-1.5.23-.57.36-1.15.39-1.74h-4.56c-.21,0-.38-.07-.5-.21-.12-.14-.18-.29-.18-.47,0-.15.06-.29.18-.42.12-.13.29-.2.5-.2h5.39Z"/>
    <path class="cls-4" d="M200.42,121.83c-.74,0-1.29-.2-1.67-.58-.37-.39-.56-1-.56-1.85v-9.25c0-.56.13-.99.39-1.28.26-.29.68-.43,1.27-.43h5.64c.18,0,.32.06.44.18.12.12.18.28.18.47s-.06.36-.18.47c-.12.12-.27.18-.44.18h-5.15c-.23,0-.39.05-.48.13-.09.09-.14.24-.14.45v3.94h5.19c.18,0,.32.06.43.18.11.12.17.28.17.47s-.06.36-.17.47c-.11.12-.26.18-.43.18h-5.19v3.68c0,.44.09.76.26.97.18.21.47.31.89.31h4.68c.18,0,.32.06.44.17.12.11.18.27.18.47s-.07.36-.21.48c-.14.12-.28.18-.41.18h-5.13Z"/>
    <path class="cls-4" d="M216.69,121.13c0,.21-.06.38-.17.51-.11.13-.29.19-.54.19s-.41-.06-.53-.19c-.12-.12-.18-.29-.18-.51v-8.54c0-.44-.06-.85-.18-1.23-.12-.38-.29-.7-.52-.97-.23-.27-.51-.48-.86-.63-.34-.15-.74-.23-1.19-.23s-.85.07-1.18.23c-.34.15-.62.36-.86.63-.23.27-.41.59-.53.97-.12.38-.18.79-.18,1.23v8.54c0,.21-.07.38-.2.51-.13.13-.32.19-.56.19s-.43-.06-.56-.19c-.13-.12-.2-.29-.2-.51v-8.73c0-.6.1-1.16.29-1.67.19-.51.47-.95.83-1.32.36-.37.79-.66,1.29-.87.5-.21,1.07-.31,1.69-.31.41,0,.81.05,1.2.16.38.11.73.26,1.05.47s.6.46.84.75c.24.3.41.63.53,1.01.11-.38.29-.71.53-1.01.24-.29.52-.55.84-.75s.68-.37,1.07-.47c.39-.11.79-.16,1.21-.16.62,0,1.18.1,1.69.31.51.21.95.5,1.31.87.36.37.64.81.83,1.32.2.51.29,1.06.29,1.67v8.75c0,.21-.07.38-.2.51s-.32.19-.56.19c-.26,0-.45-.06-.57-.19-.13-.12-.19-.29-.19-.51v-8.56c0-.44-.06-.85-.18-1.23-.12-.38-.3-.7-.53-.97-.23-.27-.52-.48-.87-.63-.35-.15-.75-.23-1.2-.23s-.85.07-1.19.23c-.34.15-.63.36-.86.63-.23.27-.41.59-.53.97-.12.38-.18.79-.18,1.23v8.54Z"/>
    <path class="cls-4" d="M228.61,121.83c-.74,0-1.29-.2-1.67-.58-.37-.39-.56-1-.56-1.85v-9.25c0-.56.13-.99.39-1.28.26-.29.68-.43,1.27-.43h5.64c.18,0,.32.06.44.18.12.12.18.28.18.47s-.06.36-.18.47c-.12.12-.27.18-.44.18h-5.15c-.23,0-.39.05-.48.13-.09.09-.14.24-.14.45v3.94h5.19c.18,0,.32.06.43.18.11.12.17.28.17.47s-.06.36-.17.47c-.11.12-.26.18-.43.18h-5.19v3.68c0,.44.09.76.26.97.18.21.47.31.89.31h4.68c.18,0,.32.06.44.17.12.11.18.27.18.47s-.07.36-.21.48c-.14.12-.28.18-.41.18h-5.13Z"/>
    <path class="cls-4" d="M245.28,113.74c0-.63-.08-1.2-.24-1.72-.16-.52-.39-.96-.69-1.33-.3-.37-.68-.66-1.13-.86-.45-.2-.98-.3-1.59-.3s-1.13.1-1.59.3c-.45.2-.83.49-1.13.86-.3.37-.53.81-.69,1.33-.16.52-.24,1.09-.24,1.72v7.39c0,.21-.07.38-.21.51-.14.13-.32.19-.56.19s-.42-.06-.56-.19c-.14-.12-.21-.29-.21-.51v-7.64c0-.77.12-1.47.37-2.12.24-.65.59-1.2,1.04-1.67.45-.46.99-.83,1.63-1.09.63-.26,1.35-.38,2.14-.38s1.5.13,2.14.38c.63.26,1.18.62,1.63,1.09.45.46.8,1.02,1.04,1.67.24.65.37,1.36.37,2.12v7.64c0,.21-.07.38-.21.51-.14.13-.32.19-.56.19s-.42-.06-.56-.19c-.14-.12-.21-.29-.21-.51v-7.39Z"/>
    <path class="cls-4" d="M256.21,108.44c.2,0,.35.07.45.2.1.14.15.29.15.45,0,.17-.05.32-.15.46-.1.13-.25.2-.45.2h-3.26v11.33c0,.21-.07.39-.2.54-.14.14-.32.22-.56.22s-.42-.07-.56-.22c-.14-.14-.21-.32-.21-.54v-11.33h-3.26c-.19,0-.33-.06-.43-.2-.1-.13-.15-.28-.15-.46,0-.16.05-.31.15-.45.1-.13.24-.2.43-.2h8.05Z"/>
  </g>
  <g>
    <path class="cls-2" d="M26,64.84c1.77,0,3.33-.11,4.67-.32,1.34-.21,2.57-.52,3.66-.92,1.1-.4,2.09-.85,2.98-1.37.88-.52,1.76-1.08,2.61-1.69.79-.61,1.57-.81,2.34-.6.76.21,1.37.61,1.83,1.19.46.58.65,1.28.59,2.11-.06.82-.52,1.57-1.37,2.24-1.95,1.53-4.28,2.78-6.96,3.75-2.69.98-6.14,1.47-10.35,1.47-3.73,0-7.07-.6-10.03-1.79-2.96-1.19-5.48-2.84-7.56-4.95-2.08-2.11-3.66-4.58-4.76-7.42-1.1-2.84-1.65-5.94-1.65-9.3s.59-6.47,1.79-9.34c1.19-2.87,2.82-5.36,4.9-7.46,2.08-2.11,4.47-3.75,7.19-4.95,2.72-1.19,5.63-1.79,8.75-1.79s5.94.52,8.66,1.56c2.72,1.04,5.08,2.5,7.1,4.4,2.01,1.89,3.6,4.18,4.76,6.87,1.16,2.69,1.74,5.65,1.74,8.89,0,1.41-.32,2.5-.96,3.3-.64.79-1.73,1.19-3.25,1.19H9.14c.12,2.14.64,4.12,1.56,5.95.92,1.83,2.12,3.42,3.62,4.76,1.5,1.34,3.24,2.38,5.22,3.11,1.98.73,4.14,1.1,6.46,1.1ZM40.38,44.41c0-2.02-.37-3.92-1.1-5.72-.73-1.8-1.77-3.37-3.12-4.72-1.34-1.34-2.99-2.41-4.95-3.21-1.96-.79-4.15-1.19-6.6-1.19-2.14,0-4.11.4-5.91,1.19-1.8.79-3.39,1.86-4.76,3.21-1.37,1.34-2.49,2.92-3.34,4.72-.86,1.8-1.37,3.71-1.56,5.72h31.33Z"/>
    <path class="cls-2" d="M74.91,91.76c-3.3,0-6.47-.54-9.53-1.6-3.05-1.07-5.56-2.49-7.51-4.26-.79-.73-1.21-1.53-1.24-2.38-.03-.86.18-1.59.64-2.2.46-.61,1.08-.99,1.88-1.14.79-.15,1.62.11,2.47.78,1.83,1.47,3.88,2.62,6.14,3.48,2.26.86,4.76,1.28,7.51,1.28,4.76,0,8.35-1.18,10.76-3.53,2.41-2.35,3.62-6.24,3.62-11.68v-8.52c-1.34,2.69-3.43,4.66-6.27,5.91-2.84,1.25-5.94,1.88-9.3,1.88-2.75,0-5.25-.46-7.51-1.38-2.26-.92-4.21-2.18-5.86-3.8-1.65-1.62-2.92-3.51-3.8-5.68-.89-2.17-1.33-4.53-1.33-7.1v-23.54c0-1.04.29-1.91.86-2.61.57-.7,1.43-1.05,2.58-1.05s2,.35,2.58,1.05c.57.7.86,1.57.86,2.61v21.98c0,1.96.26,3.77.78,5.45.52,1.68,1.33,3.13,2.43,4.35,1.1,1.22,2.51,2.17,4.23,2.84,1.72.67,3.77,1.01,6.16,1.01,2.21,0,4.15-.38,5.84-1.14,1.68-.76,3.11-1.79,4.27-3.07,1.16-1.28,2.04-2.75,2.62-4.4.58-1.65.87-3.36.87-5.13v-21.89c0-1.04.29-1.91.86-2.61.57-.7,1.43-1.05,2.58-1.05s2,.35,2.58,1.05c.57.7.86,1.57.86,2.61v42.87c0,6.72-1.96,11.83-5.86,15.34-3.91,3.51-9.16,5.27-15.75,5.27Z"/>
    <path class="cls-2" d="M130.69,64.84c1.77,0,3.33-.11,4.67-.32,1.34-.21,2.57-.52,3.66-.92,1.1-.4,2.09-.85,2.98-1.37.88-.52,1.75-1.08,2.61-1.69.79-.61,1.57-.81,2.34-.6.76.21,1.37.61,1.83,1.19.46.58.65,1.28.6,2.11-.06.82-.52,1.57-1.37,2.24-1.96,1.53-4.28,2.78-6.96,3.75-2.69.98-6.14,1.47-10.35,1.47-3.73,0-7.07-.6-10.03-1.79-2.96-1.19-5.48-2.84-7.56-4.95-2.08-2.11-3.66-4.58-4.76-7.42-1.1-2.84-1.65-5.94-1.65-9.3s.59-6.47,1.79-9.34c1.19-2.87,2.82-5.36,4.9-7.46,2.08-2.11,4.47-3.75,7.19-4.95,2.72-1.19,5.63-1.79,8.75-1.79s5.94.52,8.66,1.56c2.72,1.04,5.08,2.5,7.1,4.4,2.01,1.89,3.6,4.18,4.76,6.87,1.16,2.69,1.74,5.65,1.74,8.89,0,1.41-.32,2.5-.96,3.3-.64.79-1.73,1.19-3.25,1.19h-33.52c.12,2.14.64,4.12,1.56,5.95s2.12,3.42,3.62,4.76c1.5,1.34,3.24,2.38,5.22,3.11,1.98.73,4.14,1.1,6.46,1.1ZM145.07,44.41c0-2.02-.37-3.92-1.1-5.72-.73-1.8-1.77-3.37-3.11-4.72-1.34-1.34-2.99-2.41-4.95-3.21-1.96-.79-4.15-1.19-6.6-1.19-2.14,0-4.11.4-5.91,1.19-1.8.79-3.39,1.86-4.76,3.21-1.37,1.34-2.49,2.92-3.34,4.72-.86,1.8-1.37,3.71-1.56,5.72h31.33Z"/>
    <path class="cls-1" d="M172.55,63.74c.92.43,1.45,1.05,1.6,1.88.15.82.03,1.6-.37,2.34-.4.73-1.01,1.28-1.83,1.65-.82.37-1.79.3-2.88-.18-.92-.43-1.85-.99-2.79-1.69-.95-.7-1.79-1.59-2.52-2.66-.73-1.07-1.34-2.34-1.83-3.8-.49-1.47-.73-3.17-.73-5.13V5.75c0-1.04.29-1.92.87-2.66.58-.73,1.45-1.1,2.61-1.1s2.06.37,2.7,1.1c.64.73.96,1.62.96,2.66v48.82c0,2.81.37,4.87,1.1,6.18.73,1.31,1.77,2.31,3.12,2.98Z"/>
    <path class="cls-1" d="M226.13,47.34c0,3.11-.56,6.08-1.69,8.88-1.13,2.81-2.73,5.3-4.8,7.47-2.07,2.17-4.57,3.88-7.5,5.13-2.93,1.25-6.16,1.88-9.69,1.88s-6.84-.63-9.74-1.88c-2.89-1.25-5.38-2.96-7.45-5.13-2.07-2.17-3.67-4.66-4.8-7.47-1.13-2.81-1.69-5.77-1.69-8.88s.56-6.09,1.69-8.93c1.13-2.84,2.73-5.34,4.8-7.51,2.07-2.17,4.56-3.91,7.45-5.22,2.89-1.31,6.14-1.97,9.74-1.97s6.77.66,9.69,1.97c2.93,1.31,5.42,3.05,7.5,5.22,2.07,2.17,3.67,4.67,4.8,7.51,1.13,2.84,1.69,5.82,1.69,8.93ZM185.65,47.34c0,2.5.41,4.81,1.24,6.92.83,2.11,1.97,3.95,3.45,5.54,1.47,1.59,3.23,2.83,5.28,3.71,2.05.89,4.33,1.33,6.84,1.33s4.71-.44,6.8-1.33c2.08-.88,3.86-2.12,5.33-3.71,1.47-1.59,2.62-3.43,3.44-5.54.83-2.11,1.24-4.41,1.24-6.92s-.41-4.75-1.24-6.92c-.83-2.17-1.98-4.06-3.44-5.68-1.47-1.62-3.25-2.88-5.33-3.8-2.08-.92-4.35-1.37-6.8-1.37s-4.79.46-6.84,1.37c-2.05.92-3.81,2.18-5.28,3.8-1.47,1.62-2.62,3.51-3.45,5.68-.83,2.17-1.24,4.47-1.24,6.92Z"/>
    <path class="cls-1" d="M281.82,69.14c0,3.36-.51,6.43-1.54,9.21-1.02,2.78-2.52,5.16-4.49,7.14-1.97,1.98-4.4,3.53-7.3,4.62-2.9,1.1-6.24,1.65-10.03,1.65-4.21,0-7.88-.56-10.99-1.69-3.12-1.13-6.02-3.07-8.7-5.82-.79-.79-1.19-1.67-1.19-2.61s.23-1.74.69-2.38c.46-.64,1.08-1.04,1.88-1.19.79-.15,1.59.17,2.38.96,1.22,1.22,2.43,2.26,3.62,3.12,1.19.85,2.41,1.54,3.66,2.06,1.25.52,2.58.9,3.98,1.14,1.4.24,2.93.37,4.58.37,4.95,0,8.95-1.39,12-4.17,3.05-2.78,4.58-6.92,4.58-12.41v-8.61c-1.53,2.32-3.89,4.27-7.1,5.86-3.21,1.59-6.86,2.38-10.95,2.38-3.36,0-6.41-.61-9.16-1.83-2.75-1.22-5.12-2.85-7.1-4.9-1.99-2.04-3.51-4.43-4.58-7.14-1.07-2.72-1.6-5.6-1.6-8.66s.58-5.85,1.74-8.56c1.16-2.72,2.78-5.11,4.86-7.19,2.07-2.08,4.52-3.72,7.33-4.95,2.81-1.22,5.83-1.83,9.07-1.83,2.2,0,4.24.25,6.14.73,1.89.49,3.59,1.14,5.08,1.97,1.5.82,2.79,1.79,3.89,2.89,1.1,1.1,1.92,2.26,2.47,3.48v-4.76c0-1.04.27-1.86.81-2.47.54-.61,1.38-.92,2.53-.92s2,.31,2.58.92c.57.61.86,1.44.86,2.47v41.13ZM274.95,46.24c0-2.44-.43-4.69-1.29-6.73-.86-2.04-2.04-3.8-3.54-5.27-1.5-1.47-3.28-2.61-5.33-3.44-2.05-.82-4.27-1.24-6.66-1.24-2.57,0-4.9.41-6.98,1.24-2.08.82-3.86,1.99-5.33,3.48-1.47,1.5-2.59,3.27-3.35,5.31-.77,2.05-1.15,4.26-1.15,6.64s.38,4.6,1.15,6.64c.77,2.05,1.87,3.82,3.31,5.31,1.44,1.5,3.2,2.66,5.28,3.48,2.08.82,4.41,1.24,6.98,1.24,2.39,0,4.61-.38,6.66-1.14,2.05-.76,3.84-1.88,5.37-3.34,1.53-1.46,2.72-3.22,3.58-5.27.86-2.05,1.29-4.35,1.29-6.92Z"/>
    <circle class="cls-5" cx="202.38" cy="47.53" r="7.07"/>
    <circle class="cls-5" cx="257.38" cy="46.53" r="7.07"/>
    <path class="cls-3" d="M219.34,32.27s1.67-7.29,10.33-7.29,10.33,7.29,10.33,7.29"/>
  </g>
</svg>