<?xml version="1.0" encoding="UTF-8"?>
<svg id="_레이어_1" data-name="레이어 1" xmlns="http://www.w3.org/2000/svg" viewBox="0 0 283.82 126.34">
  <defs>
    <style>
      .cls-1 {
        fill: #2ca339;
      }

      .cls-1, .cls-2 {
        stroke-width: 4px;
      }

      .cls-1, .cls-2, .cls-3, .cls-4 {
        stroke-miterlimit: 10;
      }

      .cls-1, .cls-3 {
        stroke: #2ca339;
      }

      .cls-5 {
        fill: #143e69;
      }

      .cls-2, .cls-4 {
        fill: #026636;
        stroke: #026636;
      }

      .cls-3 {
        fill: none;
        stroke-width: 5px;
      }

      .cls-4 {
        stroke-width: .5px;
      }
    </style>
  </defs>
  <path class="cls-2" d="M26,64.84c1.77,0,3.33-.11,4.67-.32,1.34-.21,2.56-.52,3.66-.92,1.1-.4,2.09-.85,2.98-1.37.88-.52,1.75-1.08,2.61-1.69.79-.61,1.57-.81,2.34-.6.76.21,1.37.61,1.83,1.19.46.58.66,1.28.6,2.11-.06.82-.52,1.57-1.37,2.24-1.96,1.53-4.28,2.78-6.96,3.75-2.69.98-6.14,1.47-10.35,1.47-3.73,0-7.07-.6-10.03-1.79-2.96-1.19-5.48-2.84-7.56-4.95-2.08-2.11-3.66-4.58-4.76-7.42-1.1-2.84-1.65-5.94-1.65-9.3s.6-6.47,1.79-9.34c1.19-2.87,2.82-5.36,4.9-7.46,2.08-2.11,4.47-3.75,7.19-4.95,2.72-1.19,5.63-1.79,8.75-1.79s5.94.52,8.66,1.56c2.72,1.04,5.08,2.5,7.1,4.4,2.02,1.89,3.6,4.18,4.76,6.87,1.16,2.69,1.74,5.65,1.74,8.89,0,1.41-.32,2.5-.96,3.3-.64.79-1.73,1.19-3.25,1.19H9.14c.12,2.14.64,4.12,1.56,5.95.92,1.83,2.12,3.42,3.62,4.76,1.5,1.34,3.24,2.38,5.22,3.11,1.98.73,4.14,1.1,6.46,1.1ZM40.38,44.41c0-2.02-.37-3.92-1.1-5.72-.73-1.8-1.77-3.37-3.11-4.72-1.34-1.34-2.99-2.41-4.95-3.21-1.96-.79-4.15-1.19-6.6-1.19-2.14,0-4.11.4-5.91,1.19-1.8.79-3.39,1.86-4.76,3.21-1.37,1.34-2.49,2.92-3.34,4.72-.86,1.8-1.37,3.71-1.56,5.72h31.33Z"/>
  <path class="cls-2" d="M74.91,91.76c-3.3,0-6.47-.54-9.53-1.6-3.05-1.07-5.56-2.49-7.51-4.26-.79-.73-1.21-1.53-1.24-2.38-.03-.86.18-1.59.64-2.2.46-.61,1.08-.99,1.88-1.14.79-.15,1.62.11,2.47.78,1.83,1.47,3.88,2.62,6.14,3.48,2.26.85,4.76,1.28,7.51,1.28,4.76,0,8.35-1.18,10.76-3.53,2.41-2.35,3.62-6.24,3.62-11.68v-8.52c-1.34,2.69-3.44,4.66-6.27,5.91-2.84,1.25-5.94,1.88-9.3,1.88-2.75,0-5.25-.46-7.51-1.37-2.26-.92-4.21-2.18-5.86-3.8-1.65-1.62-2.92-3.51-3.8-5.68-.89-2.17-1.33-4.53-1.33-7.1v-23.54c0-1.04.29-1.91.86-2.61.57-.7,1.43-1.05,2.58-1.05s2,.35,2.58,1.05c.57.7.86,1.57.86,2.61v21.98c0,1.96.26,3.77.78,5.45.52,1.68,1.33,3.13,2.43,4.35,1.1,1.22,2.51,2.17,4.23,2.84,1.72.67,3.77,1.01,6.16,1.01,2.21,0,4.15-.38,5.84-1.14,1.68-.76,3.11-1.79,4.27-3.07,1.16-1.28,2.04-2.75,2.62-4.4.58-1.65.87-3.36.87-5.13v-21.89c0-1.04.29-1.91.86-2.61.57-.7,1.43-1.05,2.58-1.05s2,.35,2.58,1.05c.57.7.86,1.57.86,2.61v42.87c0,6.72-1.96,11.83-5.86,15.34-3.91,3.51-9.16,5.27-15.75,5.27Z"/>
  <path class="cls-2" d="M130.69,64.84c1.77,0,3.33-.11,4.67-.32,1.34-.21,2.56-.52,3.66-.92,1.1-.4,2.09-.85,2.98-1.37.88-.52,1.75-1.08,2.61-1.69.79-.61,1.57-.81,2.34-.6.76.21,1.37.61,1.83,1.19.46.58.66,1.28.6,2.11-.06.82-.52,1.57-1.37,2.24-1.96,1.53-4.28,2.78-6.96,3.75-2.69.98-6.14,1.47-10.35,1.47-3.73,0-7.07-.6-10.03-1.79-2.96-1.19-5.48-2.84-7.56-4.95-2.08-2.11-3.66-4.58-4.76-7.42-1.1-2.84-1.65-5.94-1.65-9.3s.6-6.47,1.79-9.34c1.19-2.87,2.82-5.36,4.9-7.46,2.08-2.11,4.47-3.75,7.19-4.95,2.72-1.19,5.63-1.79,8.75-1.79s5.94.52,8.66,1.56c2.72,1.04,5.08,2.5,7.1,4.4,2.02,1.89,3.6,4.18,4.76,6.87,1.16,2.69,1.74,5.65,1.74,8.89,0,1.41-.32,2.5-.96,3.3-.64.79-1.73,1.19-3.25,1.19h-33.52c.12,2.14.64,4.12,1.56,5.95.92,1.83,2.12,3.42,3.62,4.76,1.5,1.34,3.24,2.38,5.22,3.11,1.98.73,4.14,1.1,6.46,1.1ZM145.07,44.41c0-2.02-.37-3.92-1.1-5.72-.73-1.8-1.77-3.37-3.11-4.72-1.34-1.34-2.99-2.41-4.95-3.21-1.95-.79-4.15-1.19-6.6-1.19-2.14,0-4.11.4-5.91,1.19-1.8.79-3.39,1.86-4.76,3.21-1.37,1.34-2.49,2.92-3.34,4.72-.86,1.8-1.37,3.71-1.56,5.72h31.33Z"/>
  <path class="cls-1" d="M172.55,63.74c.92.43,1.45,1.05,1.6,1.88.15.82.03,1.6-.37,2.34-.4.73-1.01,1.28-1.83,1.65-.82.37-1.79.31-2.89-.18-.92-.43-1.85-.99-2.79-1.69-.95-.7-1.79-1.59-2.52-2.66-.73-1.07-1.34-2.34-1.83-3.8-.49-1.47-.73-3.17-.73-5.13V5.75c0-1.04.29-1.92.87-2.66.58-.73,1.45-1.1,2.61-1.1s2.06.37,2.7,1.1c.64.73.96,1.62.96,2.66v48.82c0,2.81.37,4.87,1.1,6.18.73,1.31,1.77,2.31,3.11,2.98Z"/>
  <path class="cls-1" d="M226.13,47.34c0,3.11-.56,6.08-1.69,8.88-1.13,2.81-2.73,5.3-4.8,7.47-2.07,2.17-4.57,3.88-7.5,5.13s-6.16,1.88-9.69,1.88-6.84-.63-9.74-1.88c-2.89-1.25-5.38-2.96-7.45-5.13-2.07-2.17-3.67-4.66-4.8-7.47-1.13-2.81-1.69-5.77-1.69-8.88s.56-6.09,1.69-8.93c1.13-2.84,2.73-5.34,4.8-7.51,2.07-2.17,4.56-3.91,7.45-5.22,2.89-1.31,6.14-1.97,9.74-1.97s6.77.66,9.69,1.97c2.93,1.31,5.42,3.05,7.5,5.22,2.07,2.17,3.67,4.67,4.8,7.51,1.13,2.84,1.69,5.82,1.69,8.93ZM185.65,47.34c0,2.5.41,4.81,1.24,6.92.83,2.11,1.98,3.95,3.44,5.54,1.47,1.59,3.23,2.83,5.28,3.71,2.05.89,4.33,1.33,6.84,1.33s4.71-.44,6.8-1.33c2.08-.88,3.86-2.12,5.33-3.71,1.47-1.59,2.62-3.43,3.44-5.54.83-2.11,1.24-4.41,1.24-6.92s-.41-4.75-1.24-6.92c-.83-2.17-1.98-4.06-3.44-5.68-1.47-1.62-3.25-2.88-5.33-3.8-2.08-.92-4.35-1.37-6.8-1.37s-4.79.46-6.84,1.37c-2.05.92-3.81,2.18-5.28,3.8-1.47,1.62-2.62,3.51-3.44,5.68-.83,2.17-1.24,4.47-1.24,6.92Z"/>
  <path class="cls-1" d="M281.82,69.14c0,3.36-.51,6.43-1.54,9.21-1.02,2.78-2.52,5.16-4.49,7.14-1.97,1.98-4.4,3.53-7.3,4.62-2.9,1.1-6.24,1.65-10.03,1.65-4.21,0-7.88-.57-10.99-1.69-3.11-1.13-6.02-3.07-8.7-5.82-.79-.79-1.19-1.67-1.19-2.61s.23-1.74.69-2.38c.46-.64,1.08-1.04,1.88-1.19.79-.15,1.59.17,2.38.96,1.22,1.22,2.43,2.26,3.62,3.11,1.19.85,2.41,1.54,3.66,2.06,1.25.52,2.58.9,3.98,1.14,1.4.24,2.93.37,4.58.37,4.95,0,8.95-1.39,12-4.17,3.05-2.78,4.58-6.92,4.58-12.41v-8.61c-1.53,2.32-3.89,4.27-7.1,5.86-3.21,1.59-6.86,2.38-10.95,2.38-3.36,0-6.41-.61-9.16-1.83-2.75-1.22-5.12-2.85-7.1-4.9-1.99-2.05-3.51-4.43-4.58-7.14-1.07-2.72-1.6-5.6-1.6-8.66s.58-5.85,1.74-8.56c1.16-2.72,2.78-5.11,4.85-7.19,2.08-2.08,4.52-3.72,7.33-4.95,2.81-1.22,5.83-1.83,9.07-1.83,2.2,0,4.24.25,6.14.73,1.89.49,3.59,1.14,5.08,1.97,1.5.82,2.79,1.79,3.89,2.89,1.1,1.1,1.92,2.26,2.47,3.48v-4.76c0-1.04.27-1.86.81-2.47.54-.61,1.39-.92,2.53-.92s2,.31,2.58.92c.57.61.86,1.44.86,2.47v41.13ZM274.95,46.24c0-2.44-.43-4.69-1.29-6.73-.86-2.04-2.04-3.8-3.54-5.27-1.5-1.47-3.28-2.61-5.33-3.44-2.05-.82-4.27-1.24-6.66-1.24-2.57,0-4.9.41-6.98,1.24-2.08.82-3.86,1.99-5.33,3.48-1.47,1.5-2.59,3.27-3.35,5.31-.77,2.05-1.15,4.26-1.15,6.64s.38,4.6,1.15,6.64c.76,2.05,1.87,3.82,3.31,5.31,1.44,1.5,3.2,2.66,5.28,3.48,2.08.82,4.41,1.24,6.98,1.24,2.39,0,4.61-.38,6.66-1.14,2.05-.76,3.84-1.88,5.37-3.34,1.53-1.46,2.72-3.22,3.58-5.27.86-2.04,1.29-4.35,1.29-6.91Z"/>
  <circle class="cls-5" cx="202.38" cy="47.53" r="7.07"/>
  <circle class="cls-5" cx="257.38" cy="46.53" r="7.07"/>
  <path class="cls-3" d="M219.34,32.27s1.67-7.29,10.33-7.29,10.33,7.29,10.33,7.29"/>
  <g>
    <path class="cls-4" d="M43.91,114.81c0-.73.12-1.38.37-1.95s.58-1.06,1.01-1.45c.43-.4.92-.7,1.49-.91.57-.21,1.16-.31,1.79-.31s1.23.1,1.79.31c.57.21,1.06.51,1.48.91.42.4.76.88,1.01,1.45.25.57.38,1.22.38,1.95s-.13,1.38-.38,1.95c-.25.57-.59,1.06-1.01,1.45-.42.4-.91.7-1.48.91-.57.21-1.16.31-1.79.31s-1.23-.1-1.79-.31c-.57-.21-1.06-.51-1.49-.91-.43-.4-.76-.88-1.01-1.45s-.37-1.22-.37-1.95ZM51.7,114.81c0-.5-.08-.96-.25-1.38-.16-.42-.39-.76-.67-1.05-.28-.28-.62-.5-1-.66-.38-.16-.79-.24-1.22-.24s-.83.08-1.22.24c-.38.16-.72.38-1,.66-.28.28-.51.63-.67,1.05-.16.41-.25.87-.25,1.38s.08.98.25,1.39c.16.41.39.75.67,1.04.28.28.62.5,1,.66.38.16.79.24,1.22.24s.83-.08,1.22-.24c.38-.16.72-.38,1-.66.28-.28.51-.63.67-1.04.16-.41.25-.87.25-1.39ZM56.66,124.77c0,.26-.08.46-.25.6-.16.14-.33.21-.51.21-.2,0-.38-.07-.54-.21-.16-.14-.24-.34-.24-.6v-15.18c0-.28.08-.48.24-.61.16-.13.34-.2.54-.2.18,0,.35.07.51.2.16.13.25.34.25.61v4.62h2.19c.21,0,.37.07.46.21.09.14.14.28.14.43,0,.18-.05.33-.14.46-.09.13-.25.2-.46.2h-2.19v9.26Z"/>
    <path class="cls-4" d="M60.84,114.81c0-.73.13-1.38.39-1.95.26-.57.6-1.06,1.04-1.45.43-.4.94-.7,1.51-.91.57-.21,1.17-.31,1.8-.31s1.23.1,1.8.31c.57.21,1.07.51,1.51.91.43.4.78.88,1.04,1.45s.39,1.22.39,1.95-.13,1.38-.39,1.95-.6,1.06-1.04,1.45c-.43.4-.94.7-1.51.91-.57.21-1.17.31-1.8.31s-1.23-.1-1.8-.31c-.57-.21-1.07-.51-1.51-.91-.43-.4-.78-.88-1.04-1.45-.26-.57-.39-1.22-.39-1.95ZM68.78,114.81c0-.5-.09-.96-.26-1.38-.18-.42-.41-.76-.7-1.05-.29-.28-.63-.5-1.02-.66-.39-.16-.8-.24-1.23-.24s-.84.08-1.23.24c-.39.16-.73.38-1.02.66-.29.28-.52.63-.7,1.05-.18.41-.26.87-.26,1.38s.09.98.26,1.39c.18.41.41.75.7,1.04.29.28.63.5,1.02.66.39.16.8.24,1.23.24s.84-.08,1.23-.24c.39-.16.73-.38,1.02-.66.29-.28.52-.63.7-1.04.18-.41.26-.87.26-1.39ZM74.29,124.77c0,.26-.08.46-.25.6-.16.14-.33.21-.51.21-.2,0-.38-.07-.54-.21-.16-.14-.24-.34-.24-.6v-15.18c0-.28.08-.48.24-.61.16-.13.34-.2.54-.2.18,0,.35.07.51.2.16.13.25.34.25.61v15.18Z"/>
    <path class="cls-4" d="M90.69,121.66c.23,0,.4.07.51.22.11.14.17.29.17.44,0,.16-.06.31-.17.44-.11.13-.28.2-.51.2h-13.16c-.21,0-.38-.07-.49-.2-.11-.13-.17-.28-.17-.44,0-.15.06-.3.17-.44.11-.14.28-.22.49-.22h5.83v-2.87h-1.92c-.89,0-1.57-.23-2.05-.69-.47-.46-.71-1.07-.71-1.84s.24-1.41.71-1.88c.47-.47,1.15-.71,2.05-.71h5.26c.44,0,.77-.12.99-.37.22-.25.33-.54.33-.88s-.11-.62-.33-.86c-.22-.23-.55-.35-.99-.35h-7.01c-.2,0-.35-.07-.44-.21-.09-.14-.14-.28-.14-.43s.05-.3.14-.44c.09-.14.24-.22.44-.22h7.05c.88,0,1.56.22,2.03.66.47.44.71,1.05.71,1.83s-.24,1.36-.71,1.82c-.47.46-1.15.69-2.03.69h-5.28c-.44,0-.77.13-.99.38-.22.25-.33.55-.33.91s.11.64.33.9c.22.26.55.39.99.39h7.64c.21,0,.37.07.47.2.1.13.15.28.15.44s-.05.31-.15.45c-.1.14-.26.21-.47.21h-4.21v2.87h5.81Z"/>
    <path class="cls-4" d="M106.16,121.66c.23,0,.4.07.51.22.11.14.17.29.17.44,0,.16-.06.31-.17.44-.11.13-.28.2-.51.2h-13.16c-.21,0-.38-.07-.49-.2-.11-.13-.17-.28-.17-.44,0-.15.06-.3.17-.44.11-.14.28-.22.49-.22h13.16ZM103.23,112.68c0-.49-.13-.85-.39-1.08-.26-.23-.57-.35-.93-.35h-7.17c-.23,0-.39-.06-.49-.19-.1-.13-.15-.28-.15-.47,0-.16.05-.31.15-.44.1-.13.26-.2.49-.2h7.39c.38,0,.72.06,1.04.18.32.12.59.29.83.53.24.23.42.51.55.84.13.33.2.7.2,1.11,0,1.17-.07,2.32-.22,3.46-.15,1.14-.35,2.18-.6,3.14-.06.21-.17.37-.31.45-.14.09-.3.13-.48.13-.23,0-.41-.09-.56-.27-.14-.18-.19-.42-.12-.71.19-.94.36-1.92.52-2.92.16-1.01.24-2.07.24-3.21Z"/>
    <path class="cls-4" d="M127.28,117.09c.23,0,.4.07.51.22.11.14.17.29.17.44,0,.16-.06.31-.17.44-.11.13-.28.2-.51.2h-13.16c-.21,0-.38-.07-.49-.2-.11-.13-.17-.28-.17-.44,0-.15.06-.3.17-.44s.28-.22.49-.22h13.16ZM124.37,111.83c0-.5-.13-.84-.38-1.03-.25-.18-.56-.27-.92-.27h-7.2c-.23,0-.39-.07-.49-.21-.1-.14-.15-.3-.15-.48,0-.16.05-.3.15-.43.1-.12.26-.19.49-.19h7.43c.38,0,.72.06,1.04.17.31.11.59.27.82.48.23.21.42.47.55.78.13.31.2.68.2,1.09,0,.62-.04,1.25-.11,1.91-.08.66-.17,1.24-.28,1.74-.05.2-.14.36-.28.46-.14.11-.3.16-.47.16-.21,0-.4-.08-.57-.25-.16-.16-.21-.39-.15-.68.05-.24.1-.5.14-.78.04-.28.08-.57.1-.86.02-.29.05-.57.07-.85.02-.28.03-.54.03-.79ZM125.67,124.64c.23,0,.4.07.51.21.11.14.17.28.17.43s-.06.3-.17.44c-.11.14-.28.22-.51.22h-7.69c-.75,0-1.35-.17-1.79-.52-.44-.35-.66-.94-.66-1.78v-2.98c0-.26.08-.46.23-.58.15-.13.33-.19.53-.19.21,0,.4.06.55.19.15.12.23.32.23.58v2.87c0,.4.08.69.25.86.17.17.44.25.8.25h7.56Z"/>
    <path class="cls-4" d="M138.1,120.56c-.89-.64-1.66-1.38-2.29-2.22-.63-.84-1.14-1.74-1.52-2.71-.36,1.02-.86,1.96-1.49,2.82-.63.86-1.38,1.61-2.24,2.25-.2.15-.39.2-.58.15-.18-.05-.33-.15-.43-.3-.11-.15-.15-.32-.14-.52.01-.2.11-.36.28-.5.58-.45,1.1-.95,1.57-1.48.47-.53.87-1.12,1.21-1.76.33-.64.59-1.34.77-2.09.18-.75.27-1.57.27-2.45v-1.43c0-.29.08-.5.23-.64.15-.14.33-.21.55-.21.2,0,.38.07.55.21.16.14.25.35.25.64v1.7c0,.88.09,1.67.28,2.38.19.7.46,1.35.8,1.93.35.58.75,1.12,1.23,1.62.47.5.99.98,1.56,1.44.19.16.29.34.29.53,0,.19-.04.36-.15.5-.11.14-.25.24-.43.28-.18.04-.37,0-.56-.14ZM142.97,124.77c0,.26-.08.46-.25.6-.16.14-.33.21-.51.21-.2,0-.38-.07-.54-.21-.16-.14-.24-.34-.24-.6v-15.18c0-.28.08-.48.24-.61.16-.13.34-.2.54-.2.18,0,.35.07.51.2.16.13.25.34.25.61v15.18Z"/>
    <path class="cls-4" d="M158.69,120.73c0,.26-.08.47-.25.6-.16.14-.33.21-.51.21-.2,0-.38-.07-.54-.21-.16-.14-.24-.34-.24-.6v-1.88h-10.99c-.21,0-.38-.07-.49-.2-.11-.13-.17-.28-.17-.44,0-.15.06-.3.17-.44.11-.14.28-.22.49-.22h2.98v-3.54c0-.29.08-.5.24-.63.16-.13.34-.2.54-.2s.38.07.55.2c.16.13.25.34.25.63v3.54h6.45v-7.96c0-.28.08-.48.24-.61.16-.13.34-.2.54-.2.18,0,.35.07.51.2.16.13.25.34.25.62v4.07h1.92c.21,0,.38.07.49.2s.17.27.17.42-.06.28-.17.41c-.11.12-.28.19-.49.19h-1.92v5.86ZM154.71,115.21c-.05.23-.14.39-.28.5-.14.11-.3.16-.47.16-.2,0-.38-.07-.54-.22-.16-.14-.21-.35-.16-.63.08-.45.14-.95.21-1.48.06-.53.09-1.05.09-1.54s-.13-.83-.4-1.07c-.26-.23-.58-.35-.94-.35h-5c-.21,0-.38-.06-.49-.19-.11-.13-.17-.28-.17-.46,0-.15.06-.3.17-.44.11-.14.28-.21.49-.21h5.22c.36,0,.71.06,1.03.18.32.12.6.3.84.53.24.23.42.51.56.84.13.33.19.71.18,1.13-.01.54-.04,1.08-.09,1.61-.05.54-.13,1.08-.25,1.63ZM158.67,124.64c.23,0,.4.07.51.21.11.14.17.28.17.43s-.06.3-.17.44c-.11.14-.28.22-.51.22h-7.75c-.75,0-1.35-.17-1.79-.52s-.66-.94-.66-1.78v-2.53c0-.26.08-.46.23-.59.15-.12.33-.19.53-.19.21,0,.4.06.55.19.15.13.23.32.23.59v2.41c0,.4.08.69.25.86.17.17.44.25.8.25h7.62Z"/>
    <path class="cls-4" d="M165.9,120.71c-.47,0-.88-.09-1.24-.26-.36-.18-.67-.41-.91-.69s-.43-.61-.56-.97c-.13-.37-.19-.74-.19-1.11s.06-.75.19-1.11c.13-.36.31-.69.56-.98s.55-.52.91-.71c.36-.18.78-.27,1.24-.27h2.83c.53,0,.92-.15,1.18-.46.26-.31.39-.69.39-1.16s-.13-.87-.39-1.17c-.26-.3-.65-.45-1.18-.45h-4.62c-.21,0-.37-.07-.47-.22-.1-.14-.15-.29-.15-.42,0-.15.05-.3.15-.44.1-.14.26-.22.47-.22h4.83c.46,0,.88.08,1.23.24.36.16.66.36.91.62.25.26.43.56.56.91s.19.71.19,1.08-.06.75-.19,1.1c-.13.36-.31.67-.56.94-.25.27-.55.49-.91.66-.36.17-.77.25-1.23.25h-2.85c-.52,0-.91.18-1.17.53-.26.35-.4.77-.4,1.25s.13.89.4,1.24c.26.35.65.53,1.17.53h5.83c.2,0,.35.07.45.22.1.14.15.29.15.44s-.05.29-.15.43c-.1.14-.25.21-.45.21h-6.02ZM176.13,124.77c0,.26-.08.46-.24.6-.16.14-.33.21-.52.21-.2,0-.38-.07-.53-.21-.16-.14-.23-.34-.23-.6v-15.18c0-.28.08-.48.23-.61.15-.13.33-.2.53-.2.19,0,.36.07.52.2.16.13.24.34.24.61v15.18Z"/>
    <path class="cls-4" d="M192.52,121.66c.23,0,.4.07.51.22.11.14.17.29.17.44,0,.16-.06.31-.17.44-.11.13-.28.2-.51.2h-13.16c-.21,0-.38-.07-.49-.2s-.17-.28-.17-.44c0-.15.06-.3.17-.44.11-.14.28-.22.49-.22h13.16ZM181,118.26c-.21,0-.37-.07-.48-.2s-.16-.29-.16-.46.05-.33.16-.45c.11-.13.27-.19.48-.19h1.64v-5.71h-1.55c-.21,0-.37-.07-.48-.2-.11-.13-.16-.29-.16-.46s.05-.33.16-.45c.11-.12.27-.19.48-.19h9.71c.21,0,.37.06.48.19.11.13.16.28.16.45s-.05.33-.16.46c-.11.13-.27.2-.48.2h-1.55v5.71h1.64c.21,0,.37.06.48.19.11.12.16.28.16.45s-.05.33-.16.46c-.11.13-.27.2-.48.2h-9.9ZM184.17,116.96h3.56v-5.71h-3.56v5.71Z"/>
    <path class="cls-4" d="M207.98,121.66c.23,0,.4.07.51.22.11.14.17.29.17.44,0,.16-.06.31-.17.44-.11.13-.28.2-.51.2h-13.16c-.21,0-.38-.07-.49-.2-.11-.13-.17-.28-.17-.44,0-.15.06-.3.17-.44.11-.14.28-.22.49-.22h5.83v-2.87h-1.92c-.89,0-1.57-.23-2.05-.69-.47-.46-.71-1.07-.71-1.84s.24-1.41.71-1.88c.47-.47,1.15-.71,2.05-.71h5.26c.44,0,.77-.12.99-.37.22-.25.33-.54.33-.88s-.11-.62-.33-.86c-.22-.23-.55-.35-.99-.35h-7.01c-.2,0-.35-.07-.44-.21-.09-.14-.14-.28-.14-.43s.05-.3.14-.44c.09-.14.24-.22.44-.22h7.05c.88,0,1.56.22,2.03.66.47.44.71,1.05.71,1.83s-.24,1.36-.71,1.82c-.47.46-1.15.69-2.03.69h-5.28c-.44,0-.77.13-.99.38-.22.25-.33.55-.33.91s.11.64.33.9c.22.26.55.39.99.39h7.64c.21,0,.37.07.47.2.1.13.15.28.15.44s-.05.31-.15.45c-.1.14-.26.21-.47.21h-4.21v2.87h5.81Z"/>
    <path class="cls-4" d="M223.45,121.66c.23,0,.4.07.51.22.11.14.17.29.17.44,0,.16-.06.31-.17.44-.11.13-.28.2-.51.2h-13.16c-.21,0-.38-.07-.49-.2s-.17-.28-.17-.44c0-.15.06-.3.17-.44.11-.14.28-.22.49-.22h13.16ZM220.52,112.68c0-.49-.13-.85-.39-1.08-.26-.23-.57-.35-.93-.35h-7.17c-.23,0-.39-.06-.49-.19-.1-.13-.15-.28-.15-.47,0-.16.05-.31.15-.44.1-.13.26-.2.49-.2h7.39c.38,0,.72.06,1.04.18.32.12.59.29.83.53.24.23.42.51.55.84.13.33.2.7.2,1.11,0,1.17-.07,2.32-.22,3.46-.15,1.14-.35,2.18-.6,3.14-.06.21-.17.37-.31.45-.14.09-.3.13-.48.13-.23,0-.41-.09-.56-.27-.14-.18-.19-.42-.12-.71.19-.94.36-1.92.52-2.92.16-1.01.24-2.07.24-3.21Z"/>
    <path class="cls-4" d="M228.5,114.13c-.43,0-.74.11-.94.34-.2.23-.29.53-.29.91s.1.7.29.92c.19.23.51.34.93.34h4.28c.2,0,.35.07.45.22.1.14.15.29.15.44s-.05.3-.15.43c-.1.14-.25.21-.45.21h-4.51c-.41,0-.78-.07-1.09-.21-.31-.14-.58-.32-.79-.55-.21-.23-.37-.49-.48-.8-.11-.31-.16-.63-.16-.97s.05-.66.16-.96c.11-.3.27-.57.48-.79.21-.23.48-.41.79-.55.31-.14.68-.21,1.09-.21h2.09c.42,0,.72-.1.91-.29.19-.2.28-.48.28-.86s-.09-.65-.28-.85c-.19-.2-.49-.3-.91-.3h-3.62c-.21,0-.37-.07-.47-.21-.1-.14-.15-.28-.15-.43s.05-.3.15-.44c.1-.14.26-.22.47-.22h3.79c.41,0,.78.06,1.1.19s.58.3.8.52c.22.22.38.48.49.77.11.29.16.61.16.93s-.05.65-.16.94c-.11.29-.27.54-.48.76-.21.22-.48.39-.79.52-.31.13-.68.19-1.1.19h-2.04ZM238.06,119.62c.53,0,.91.1,1.15.3.24.2.36.55.36,1.04v3.79c0,.49-.12.84-.36,1.04-.24.2-.62.3-1.15.3h-7.34c-.53,0-.91-.1-1.15-.3-.24-.2-.36-.55-.36-1.04v-3.79c0-.49.12-.84.36-1.04.24-.2.62-.3,1.15-.3h7.34ZM238.04,120.92h-7.3v3.87h7.3v-3.87ZM235.95,117.62c0,.26-.08.47-.23.6-.15.14-.31.21-.49.21-.2,0-.37-.07-.52-.21-.14-.14-.22-.34-.22-.6v-7.94c0-.28.07-.48.22-.61.14-.13.32-.2.52-.2.18,0,.34.07.49.2.15.13.23.34.23.61v3.11h2.09v-3.21c0-.28.08-.48.24-.61.16-.13.34-.2.54-.2.18,0,.35.07.51.2.16.13.25.34.25.61v8.17c0,.26-.08.46-.25.6-.16.14-.33.21-.51.21-.2,0-.38-.07-.54-.21-.16-.14-.24-.34-.24-.6v-3.66h-2.09v3.53Z"/>
  </g>
</svg>