<svg width="289" height="32" viewBox="0 0 289 32" fill="none" xmlns="http://www.w3.org/2000/svg">
<path d="M28.56 21.544L31.136 22.392V23H22.368V22.392L24.976 21.608L23.664 3.576L23.888 3.624L15.6 23.24H14.176L5.648 3.832L5.872 3.784L4.784 21.56L7.44 22.392V23H0.656V22.392L3.248 21.56L4.576 2.792L1.888 1.8V1.192H8.384L16.192 19.16H15.76L23.392 1.192H29.712V1.8L27.056 2.616L28.56 21.544ZM40.638 20.184L39.022 23.976L32.35 9.992L30.398 9.256V8.6H37.886V9.256L35.838 9.896L40.638 20.184ZM34.222 31.208C33.6033 31.208 33.086 31.0373 32.67 30.696C32.2647 30.3547 32.062 29.8853 32.062 29.288C32.062 28.9893 32.1207 28.728 32.238 28.504C32.366 28.28 32.526 28.104 32.718 27.976C32.91 27.8587 33.102 27.8 33.294 27.8C33.486 27.8 33.678 27.848 33.87 27.944C34.062 28.0507 34.2807 28.152 34.526 28.248C34.7713 28.3547 35.054 28.408 35.374 28.408C35.7047 28.408 35.998 28.3493 36.254 28.232C36.5207 28.1253 36.766 27.9227 36.99 27.624C37.2247 27.336 37.4647 26.9147 37.71 26.36L39.39 22.28L40.206 20.184L43.886 9.816L41.854 9.256V8.6H47.134V9.256L45.406 9.816L39.102 26.072C38.59 27.4053 38.0833 28.4453 37.582 29.192C37.0913 29.9387 36.574 30.4613 36.03 30.76C35.4967 31.0587 34.894 31.208 34.222 31.208ZM54.6685 22.136C55.4365 22.136 56.1085 21.928 56.6845 21.512C57.2605 21.096 57.7085 20.4507 58.0285 19.576C58.3485 18.7013 58.5085 17.576 58.5085 16.2C58.5085 14.728 58.3485 13.496 58.0285 12.504C57.7192 11.5013 57.2712 10.744 56.6845 10.232C56.1085 9.72 55.4045 9.464 54.5725 9.464C53.8045 9.464 53.1325 9.672 52.5565 10.088C51.9805 10.504 51.5325 11.1547 51.2125 12.04C50.9032 12.9147 50.7485 14.04 50.7485 15.416C50.7485 16.8773 50.9032 18.1093 51.2125 19.112C51.5218 20.104 51.9698 20.856 52.5565 21.368C53.1432 21.88 53.8472 22.136 54.6685 22.136ZM54.5405 23.352C53.1112 23.352 51.8472 23.0373 50.7485 22.408C49.6605 21.7787 48.8072 20.9093 48.1885 19.8C47.5805 18.68 47.2765 17.3893 47.2765 15.928C47.2765 14.4453 47.5965 13.128 48.2365 11.976C48.8872 10.8133 49.7725 9.90133 50.8925 9.24C52.0125 8.57867 53.2818 8.248 54.7005 8.248C56.1405 8.248 57.4045 8.56267 58.4925 9.192C59.5912 9.82133 60.4445 10.696 61.0525 11.816C61.6605 12.9253 61.9645 14.2107 61.9645 15.672C61.9645 17.1653 61.6392 18.4933 60.9885 19.656C60.3378 20.808 59.4525 21.7147 58.3325 22.376C57.2232 23.0267 55.9592 23.352 54.5405 23.352ZM76.1988 16.008C76.1988 14.1307 75.8201 12.7227 75.0628 11.784C74.3054 10.8347 73.2708 10.36 71.9588 10.36C71.4148 10.36 70.8921 10.4133 70.3908 10.52C69.9001 10.616 69.4308 10.7653 68.9828 10.968C68.5348 11.1707 68.1134 11.4427 67.7188 11.784L67.5748 10.808C68.1828 10.3493 68.7588 9.96 69.3028 9.64C69.8468 9.30933 70.3588 9.04267 70.8388 8.84C71.3294 8.63733 71.7934 8.488 72.2308 8.392C72.6681 8.296 73.0841 8.248 73.4788 8.248C74.8121 8.248 75.9374 8.536 76.8548 9.112C77.7828 9.688 78.4814 10.4827 78.9508 11.496C79.4308 12.5093 79.6708 13.688 79.6708 15.032C79.6708 16.76 79.3134 18.248 78.5988 19.496C77.8841 20.744 76.9241 21.6987 75.7188 22.36C74.5241 23.0213 73.1961 23.352 71.7348 23.352C71.1801 23.352 70.6361 23.3093 70.1028 23.224C69.5694 23.1387 69.0254 23.0053 68.4708 22.824C67.9268 22.6427 67.3561 22.4027 66.7588 22.104H68.6628V29.56L71.2068 30.296V30.856H63.2388V30.296L65.4788 29.576V11.624C65.3401 11.4853 65.1641 11.352 64.9508 11.224C64.7481 11.0853 64.5028 10.9413 64.2148 10.792C63.9268 10.6427 63.5961 10.4773 63.2228 10.296V9.88L67.9748 8.2H68.2948L68.6628 10.408V18.952C68.6628 19.5493 68.8068 20.088 69.0948 20.568C69.3828 21.0373 69.7881 21.4053 70.3108 21.672C70.8334 21.9387 71.4468 22.072 72.1508 22.072C73.0041 22.072 73.7294 21.8427 74.3268 21.384C74.9348 20.9147 75.3988 20.2267 75.7188 19.32C76.0388 18.4133 76.1988 17.3093 76.1988 16.008ZM84.9813 4.392C84.3306 4.392 83.8026 4.17867 83.3973 3.752C82.9919 3.31467 82.7893 2.792 82.7893 2.184C82.7893 1.58666 82.9919 1.08 83.3973 0.664C83.8026 0.247999 84.3306 0.039999 84.9813 0.039999C85.6426 0.039999 86.1706 0.247999 86.5653 0.664C86.9599 1.08 87.1573 1.58666 87.1573 2.184C87.1573 2.792 86.9599 3.31467 86.5653 3.752C86.1706 4.17867 85.6426 4.392 84.9813 4.392ZM86.8213 8.216L86.7253 11.128V21.72L88.9813 22.44V23H81.3013V22.44L83.5413 21.72V11.496C83.4239 11.3573 83.2479 11.208 83.0133 11.048C82.7786 10.888 82.5119 10.728 82.2133 10.568C81.9146 10.3973 81.6053 10.2373 81.2853 10.088V9.608L86.4693 8.216H86.8213ZM99.086 13.832L99.262 14.904C98.0673 15.2133 97.0967 15.5227 96.35 15.832C95.6033 16.1307 95.022 16.44 94.606 16.76C94.2007 17.08 93.918 17.4213 93.758 17.784C93.6087 18.136 93.534 18.5253 93.534 18.952C93.534 19.7093 93.7367 20.28 94.142 20.664C94.558 21.048 95.07 21.24 95.678 21.24C96.1473 21.24 96.5687 21.128 96.942 20.904C97.326 20.6693 97.63 20.3547 97.854 19.96C98.078 19.5653 98.19 19.1227 98.19 18.632V12.376C98.19 11.576 97.982 10.9467 97.566 10.488C97.1607 10.0293 96.5047 9.8 95.598 9.8C95.2247 9.8 94.83 9.84267 94.414 9.928C93.998 10.0133 93.6193 10.136 93.278 10.296L94.03 9.48C93.9873 9.90667 93.9287 10.296 93.854 10.648C93.79 11 93.7153 11.3093 93.63 11.576C93.5447 11.832 93.438 12.0293 93.31 12.168C93.15 12.3493 92.926 12.4933 92.638 12.6C92.3607 12.696 92.078 12.744 91.79 12.744C91.3953 12.744 91.086 12.664 90.862 12.504C90.6487 12.344 90.542 12.1253 90.542 11.848C90.542 11.4533 90.7287 11.0533 91.102 10.648C91.4753 10.232 91.9713 9.85333 92.59 9.512C93.2087 9.16 93.8967 8.87733 94.654 8.664C95.4113 8.45067 96.174 8.344 96.942 8.344C98.0193 8.344 98.8833 8.50933 99.534 8.84C100.185 9.16 100.654 9.624 100.942 10.232C101.23 10.84 101.374 11.5653 101.374 12.408V20.12C101.374 20.4293 101.422 20.6907 101.518 20.904C101.614 21.1067 101.747 21.256 101.918 21.352C102.099 21.448 102.318 21.496 102.574 21.496C102.83 21.496 103.102 21.4533 103.39 21.368C103.678 21.272 103.966 21.1387 104.254 20.968V21.704C103.689 22.2907 103.123 22.712 102.558 22.968C102.003 23.2133 101.459 23.336 100.926 23.336C100.329 23.336 99.8273 23.208 99.422 22.952C99.0273 22.696 98.734 22.328 98.542 21.848C98.35 21.3573 98.2487 20.7813 98.238 20.12L98.35 20.04C98.1793 20.712 97.8967 21.2987 97.502 21.8C97.118 22.2907 96.654 22.6747 96.11 22.952C95.566 23.2187 94.974 23.352 94.334 23.352C93.1713 23.352 92.2167 23.0373 91.47 22.408C90.7233 21.768 90.35 20.8507 90.35 19.656C90.35 19.0373 90.4673 18.4773 90.702 17.976C90.9473 17.4747 91.3793 17 91.998 16.552C92.6273 16.104 93.5127 15.6613 94.654 15.224C95.806 14.7867 97.2833 14.3227 99.086 13.832ZM138.883 21.544L141.459 22.392V23H132.691V22.392L135.299 21.608L133.987 3.576L134.211 3.624L125.923 23.24H124.499L115.971 3.832L116.195 3.784L115.107 21.56L117.763 22.392V23H110.979V22.392L113.571 21.56L114.899 2.792L112.211 1.8V1.192H118.707L126.515 19.16H126.083L133.715 1.192H140.035V1.8L137.379 2.616L138.883 21.544ZM151.439 13.832L151.615 14.904C150.42 15.2133 149.449 15.5227 148.703 15.832C147.956 16.1307 147.375 16.44 146.959 16.76C146.553 17.08 146.271 17.4213 146.111 17.784C145.961 18.136 145.887 18.5253 145.887 18.952C145.887 19.7093 146.089 20.28 146.495 20.664C146.911 21.048 147.423 21.24 148.031 21.24C148.5 21.24 148.921 21.128 149.295 20.904C149.679 20.6693 149.983 20.3547 150.207 19.96C150.431 19.5653 150.543 19.1227 150.543 18.632V12.376C150.543 11.576 150.335 10.9467 149.919 10.488C149.513 10.0293 148.857 9.8 147.951 9.8C147.577 9.8 147.183 9.84267 146.767 9.928C146.351 10.0133 145.972 10.136 145.631 10.296L146.383 9.48C146.34 9.90667 146.281 10.296 146.207 10.648C146.143 11 146.068 11.3093 145.983 11.576C145.897 11.832 145.791 12.0293 145.663 12.168C145.503 12.3493 145.279 12.4933 144.991 12.6C144.713 12.696 144.431 12.744 144.143 12.744C143.748 12.744 143.439 12.664 143.215 12.504C143.001 12.344 142.895 12.1253 142.895 11.848C142.895 11.4533 143.081 11.0533 143.455 10.648C143.828 10.232 144.324 9.85333 144.943 9.512C145.561 9.16 146.249 8.87733 147.007 8.664C147.764 8.45067 148.527 8.344 149.295 8.344C150.372 8.344 151.236 8.50933 151.887 8.84C152.537 9.16 153.007 9.624 153.295 10.232C153.583 10.84 153.727 11.5653 153.727 12.408V20.12C153.727 20.4293 153.775 20.6907 153.871 20.904C153.967 21.1067 154.1 21.256 154.271 21.352C154.452 21.448 154.671 21.496 154.927 21.496C155.183 21.496 155.455 21.4533 155.743 21.368C156.031 21.272 156.319 21.1387 156.607 20.968V21.704C156.041 22.2907 155.476 22.712 154.911 22.968C154.356 23.2133 153.812 23.336 153.279 23.336C152.681 23.336 152.18 23.208 151.775 22.952C151.38 22.696 151.087 22.328 150.895 21.848C150.703 21.3573 150.601 20.7813 150.591 20.12L150.703 20.04C150.532 20.712 150.249 21.2987 149.855 21.8C149.471 22.2907 149.007 22.6747 148.463 22.952C147.919 23.2187 147.327 23.352 146.687 23.352C145.524 23.352 144.569 23.0373 143.823 22.408C143.076 21.768 142.703 20.8507 142.703 19.656C142.703 19.0373 142.82 18.4773 143.055 17.976C143.3 17.4747 143.732 17 144.351 16.552C144.98 16.104 145.865 15.6613 147.007 15.224C148.159 14.7867 149.636 14.3227 151.439 13.832ZM162.328 11.32V21.752L164.52 22.44V23H156.904V22.44L159.144 21.72V11.656C158.952 11.4533 158.691 11.2507 158.36 11.048C158.029 10.8453 157.533 10.6053 156.872 10.328V9.896L161.56 8.216H161.88L162.328 11.32ZM166.488 22.44L168.696 21.752V13.512C168.696 12.936 168.584 12.4507 168.36 12.056C168.136 11.6507 167.8 11.3467 167.352 11.144C166.915 10.9307 166.36 10.824 165.688 10.824C164.92 10.824 164.2 10.952 163.528 11.208C162.867 11.464 162.365 11.768 162.024 12.12L161.512 11.624C162.163 10.9627 162.76 10.4133 163.304 9.976C163.848 9.53867 164.36 9.19733 164.84 8.952C165.331 8.696 165.816 8.52 166.296 8.424C166.776 8.31733 167.288 8.264 167.832 8.264C169.208 8.264 170.227 8.68533 170.888 9.528C171.549 10.36 171.88 11.6613 171.88 13.432V21.72L174.136 22.44V23H166.488V22.44ZM184.08 13.832L184.256 14.904C183.061 15.2133 182.09 15.5227 181.344 15.832C180.597 16.1307 180.016 16.44 179.6 16.76C179.194 17.08 178.912 17.4213 178.752 17.784C178.602 18.136 178.528 18.5253 178.528 18.952C178.528 19.7093 178.73 20.28 179.136 20.664C179.552 21.048 180.064 21.24 180.672 21.24C181.141 21.24 181.562 21.128 181.936 20.904C182.32 20.6693 182.624 20.3547 182.848 19.96C183.072 19.5653 183.184 19.1227 183.184 18.632V12.376C183.184 11.576 182.976 10.9467 182.56 10.488C182.154 10.0293 181.498 9.8 180.592 9.8C180.218 9.8 179.824 9.84267 179.408 9.928C178.992 10.0133 178.613 10.136 178.272 10.296L179.024 9.48C178.981 9.90667 178.922 10.296 178.848 10.648C178.784 11 178.709 11.3093 178.624 11.576C178.538 11.832 178.432 12.0293 178.304 12.168C178.144 12.3493 177.92 12.4933 177.632 12.6C177.354 12.696 177.072 12.744 176.784 12.744C176.389 12.744 176.08 12.664 175.856 12.504C175.642 12.344 175.536 12.1253 175.536 11.848C175.536 11.4533 175.722 11.0533 176.096 10.648C176.469 10.232 176.965 9.85333 177.584 9.512C178.202 9.16 178.89 8.87733 179.648 8.664C180.405 8.45067 181.168 8.344 181.936 8.344C183.013 8.344 183.877 8.50933 184.528 8.84C185.178 9.16 185.648 9.624 185.936 10.232C186.224 10.84 186.368 11.5653 186.368 12.408V20.12C186.368 20.4293 186.416 20.6907 186.512 20.904C186.608 21.1067 186.741 21.256 186.912 21.352C187.093 21.448 187.312 21.496 187.568 21.496C187.824 21.496 188.096 21.4533 188.384 21.368C188.672 21.272 188.96 21.1387 189.248 20.968V21.704C188.682 22.2907 188.117 22.712 187.552 22.968C186.997 23.2133 186.453 23.336 185.92 23.336C185.322 23.336 184.821 23.208 184.416 22.952C184.021 22.696 183.728 22.328 183.536 21.848C183.344 21.3573 183.242 20.7813 183.232 20.12L183.344 20.04C183.173 20.712 182.89 21.2987 182.496 21.8C182.112 22.2907 181.648 22.6747 181.104 22.952C180.56 23.2187 179.968 23.352 179.328 23.352C178.165 23.352 177.21 23.0373 176.464 22.408C175.717 21.768 175.344 20.8507 175.344 19.656C175.344 19.0373 175.461 18.4773 175.696 17.976C175.941 17.4747 176.373 17 176.992 16.552C177.621 16.104 178.506 15.6613 179.648 15.224C180.8 14.7867 182.277 14.3227 184.08 13.832ZM195.769 31.208C194.649 31.208 193.663 31.1227 192.809 30.952C191.967 30.7813 191.263 30.536 190.697 30.216C190.143 29.896 189.727 29.512 189.449 29.064C189.172 28.616 189.033 28.1147 189.033 27.56C189.033 27.144 189.14 26.7493 189.353 26.376C189.567 26.0133 189.908 25.672 190.377 25.352C190.857 25.032 191.481 24.7333 192.249 24.456C193.028 24.1893 193.983 23.944 195.113 23.72H196.169V24.056C195.017 24.2373 194.116 24.4827 193.465 24.792C192.825 25.1013 192.377 25.4587 192.121 25.864C191.865 26.28 191.737 26.7333 191.737 27.224C191.737 27.8107 191.908 28.3173 192.249 28.744C192.591 29.1707 193.103 29.496 193.785 29.72C194.468 29.9547 195.316 30.072 196.329 30.072C197.375 30.072 198.265 29.9333 199.001 29.656C199.748 29.3787 200.324 29.0053 200.729 28.536C201.135 28.0773 201.337 27.5707 201.337 27.016C201.337 26.6107 201.236 26.264 201.033 25.976C200.831 25.6987 200.5 25.464 200.041 25.272C199.593 25.08 198.996 24.9253 198.249 24.808C197.513 24.6907 196.601 24.5947 195.513 24.52C194.479 24.4453 193.625 24.3067 192.953 24.104C192.281 23.9013 191.759 23.6507 191.385 23.352C191.012 23.0533 190.751 22.7173 190.601 22.344C190.463 21.96 190.393 21.5547 190.393 21.128C190.393 20.328 190.751 19.656 191.465 19.112C192.18 18.568 193.161 18.1733 194.409 17.928L194.809 18.312C194.18 18.3867 193.716 18.5573 193.417 18.824C193.129 19.0907 192.985 19.4267 192.985 19.832C192.985 20.088 193.039 20.3173 193.145 20.52C193.252 20.712 193.455 20.8827 193.753 21.032C194.063 21.1813 194.511 21.3093 195.097 21.416C195.695 21.512 196.479 21.5973 197.449 21.672C198.505 21.7467 199.433 21.88 200.233 22.072C201.033 22.2533 201.705 22.5093 202.249 22.84C202.793 23.1707 203.204 23.5813 203.481 24.072C203.759 24.5627 203.897 25.144 203.897 25.816C203.897 26.7653 203.583 27.6507 202.953 28.472C202.324 29.2933 201.401 29.9547 200.185 30.456C198.98 30.9573 197.508 31.208 195.769 31.208ZM195.929 18.6C194.767 18.6 193.732 18.3813 192.825 17.944C191.929 17.496 191.22 16.8827 190.697 16.104C190.185 15.3253 189.929 14.44 189.929 13.448C189.929 12.424 190.191 11.5227 190.713 10.744C191.236 9.96533 191.951 9.35733 192.857 8.92C193.764 8.472 194.788 8.248 195.929 8.248C196.825 8.248 197.636 8.38133 198.361 8.648C199.097 8.91467 199.732 9.288 200.265 9.768C200.799 10.248 201.209 10.7973 201.497 11.416C201.785 12.0347 201.929 12.7013 201.929 13.416C201.929 14.44 201.668 15.3413 201.145 16.12C200.623 16.8987 199.908 17.5067 199.001 17.944C198.105 18.3813 197.081 18.6 195.929 18.6ZM196.137 17.56C196.969 17.528 197.609 17.1653 198.057 16.472C198.505 15.7787 198.713 14.8187 198.681 13.592C198.649 12.2053 198.361 11.144 197.817 10.408C197.284 9.66133 196.58 9.29333 195.705 9.304C194.895 9.32533 194.26 9.68267 193.801 10.376C193.353 11.0693 193.145 12.0293 193.177 13.256C193.209 14.632 193.492 15.6987 194.025 16.456C194.559 17.2027 195.263 17.5707 196.137 17.56ZM197.961 9.288L197.449 8.456C198.388 8.56267 199.193 8.61067 199.865 8.6C200.537 8.57867 201.108 8.536 201.577 8.472C202.057 8.39733 202.473 8.32267 202.825 8.248C203.177 8.17333 203.508 8.136 203.817 8.136C204.137 8.136 204.388 8.232 204.569 8.424C204.751 8.616 204.841 8.91467 204.841 9.32C204.841 9.84267 204.692 10.2587 204.393 10.568C204.095 10.8773 203.753 11.032 203.369 11.032C203.071 11.032 202.777 10.9413 202.489 10.76C202.212 10.568 201.887 10.3547 201.513 10.12C201.14 9.87467 200.671 9.66667 200.105 9.496C199.54 9.32533 198.825 9.256 197.961 9.288ZM211.833 8.248C212.953 8.248 213.918 8.488 214.729 8.968C215.54 9.448 216.18 10.1467 216.649 11.064C217.129 11.9813 217.422 13.0907 217.529 14.392H207.433L207.465 13.272L215.753 12.968L214.297 13.704C214.222 12.7867 214.073 12.0187 213.849 11.4C213.636 10.7707 213.337 10.296 212.953 9.976C212.569 9.64533 212.084 9.48 211.497 9.48C210.804 9.48 210.196 9.67733 209.673 10.072C209.15 10.4667 208.745 11.064 208.457 11.864C208.169 12.664 208.025 13.672 208.025 14.888C208.025 16.2 208.249 17.3093 208.697 18.216C209.145 19.1227 209.774 19.8107 210.585 20.28C211.406 20.7387 212.372 20.968 213.481 20.968C213.94 20.968 214.382 20.9147 214.809 20.808C215.246 20.6907 215.668 20.5147 216.073 20.28C216.489 20.0453 216.889 19.752 217.273 19.4L217.673 19.864C217.086 20.6533 216.489 21.3093 215.881 21.832C215.273 22.344 214.628 22.728 213.945 22.984C213.262 23.2293 212.526 23.352 211.737 23.352C210.404 23.352 209.22 23.048 208.185 22.44C207.161 21.8213 206.356 20.9627 205.769 19.864C205.193 18.7653 204.905 17.4853 204.905 16.024C204.905 14.616 205.177 13.3253 205.721 12.152C206.265 10.968 207.054 10.024 208.089 9.32C209.124 8.60533 210.372 8.248 211.833 8.248ZM224.485 11.32V21.752L226.549 22.44V23H219.061V22.44L221.301 21.72V11.656C221.109 11.4533 220.848 11.2507 220.517 11.048C220.187 10.8453 219.691 10.6053 219.029 10.328V9.896L223.717 8.216H224.037L224.485 11.32ZM233.429 12.536V21.752L235.493 22.44V23H228.181V22.44L230.261 21.752V13.272C230.261 12.7173 230.149 12.2587 229.925 11.896C229.701 11.5227 229.381 11.2453 228.965 11.064C228.56 10.8827 228.069 10.792 227.493 10.792C226.821 10.792 226.171 10.9093 225.541 11.144C224.923 11.368 224.453 11.6507 224.133 11.992L223.653 11.432C224.283 10.8133 224.848 10.3013 225.349 9.896C225.861 9.48 226.347 9.15467 226.805 8.92C227.264 8.68533 227.717 8.52 228.165 8.424C228.624 8.31733 229.104 8.264 229.605 8.264C230.512 8.264 231.243 8.45067 231.797 8.824C232.363 9.18667 232.773 9.688 233.029 10.328C233.296 10.968 233.429 11.704 233.429 12.536ZM242.389 13.096V21.72L244.661 22.44V23H237.141V22.44L239.221 21.752V13.272C239.221 12.7067 239.109 12.2427 238.885 11.88C238.661 11.5173 238.341 11.2453 237.925 11.064C237.52 10.8827 237.029 10.792 236.453 10.792C235.781 10.792 235.131 10.9093 234.501 11.144C233.883 11.368 233.413 11.6507 233.093 11.992L232.613 11.432C233.243 10.8133 233.808 10.3013 234.309 9.896C234.821 9.48 235.307 9.15467 235.765 8.92C236.224 8.68533 236.677 8.52 237.125 8.424C237.584 8.31733 238.064 8.264 238.565 8.264C239.909 8.264 240.88 8.67467 241.477 9.496C242.085 10.3067 242.389 11.5067 242.389 13.096ZM252.724 8.248C253.844 8.248 254.81 8.488 255.62 8.968C256.431 9.448 257.071 10.1467 257.54 11.064C258.02 11.9813 258.314 13.0907 258.42 14.392H248.324L248.356 13.272L256.644 12.968L255.188 13.704C255.114 12.7867 254.964 12.0187 254.74 11.4C254.527 10.7707 254.228 10.296 253.844 9.976C253.46 9.64533 252.975 9.48 252.388 9.48C251.695 9.48 251.087 9.67733 250.564 10.072C250.042 10.4667 249.636 11.064 249.348 11.864C249.06 12.664 248.916 13.672 248.916 14.888C248.916 16.2 249.14 17.3093 249.588 18.216C250.036 19.1227 250.666 19.8107 251.476 20.28C252.298 20.7387 253.263 20.968 254.372 20.968C254.831 20.968 255.274 20.9147 255.7 20.808C256.138 20.6907 256.559 20.5147 256.964 20.28C257.38 20.0453 257.78 19.752 258.164 19.4L258.564 19.864C257.978 20.6533 257.38 21.3093 256.772 21.832C256.164 22.344 255.519 22.728 254.836 22.984C254.154 23.2293 253.418 23.352 252.628 23.352C251.295 23.352 250.111 23.048 249.076 22.44C248.052 21.8213 247.247 20.9627 246.66 19.864C246.084 18.7653 245.796 17.4853 245.796 16.024C245.796 14.616 246.068 13.3253 246.612 12.152C247.156 10.968 247.946 10.024 248.98 9.32C250.015 8.60533 251.263 8.248 252.724 8.248ZM265.377 11.32V21.752L267.569 22.44V23H259.953V22.44L262.193 21.72V11.656C262.001 11.4533 261.739 11.2507 261.409 11.048C261.078 10.8453 260.582 10.6053 259.921 10.328V9.896L264.609 8.216H264.929L265.377 11.32ZM269.537 22.44L271.745 21.752V13.512C271.745 12.936 271.633 12.4507 271.409 12.056C271.185 11.6507 270.849 11.3467 270.401 11.144C269.963 10.9307 269.409 10.824 268.737 10.824C267.969 10.824 267.249 10.952 266.577 11.208C265.915 11.464 265.414 11.768 265.073 12.12L264.561 11.624C265.211 10.9627 265.809 10.4133 266.353 9.976C266.897 9.53867 267.409 9.19733 267.889 8.952C268.379 8.696 268.865 8.52 269.345 8.424C269.825 8.31733 270.337 8.264 270.881 8.264C272.257 8.264 273.275 8.68533 273.937 9.528C274.598 10.36 274.929 11.6613 274.929 13.432V21.72L277.185 22.44V23H269.537V22.44ZM282.921 18.92C282.921 19.6133 283.139 20.1413 283.577 20.504C284.014 20.856 284.638 21.032 285.449 21.032C285.854 21.032 286.291 20.9947 286.761 20.92C287.23 20.8347 287.747 20.7067 288.313 20.536V21.272C287.566 21.7947 286.915 22.2053 286.361 22.504C285.806 22.8027 285.305 23.0107 284.857 23.128C284.419 23.256 283.987 23.32 283.561 23.32C282.814 23.32 282.153 23.1813 281.577 22.904C281.001 22.6267 280.547 22.2 280.217 21.624C279.897 21.048 279.737 20.3227 279.737 19.448V10.984L277.801 9.608V9.24C278.025 9.09067 278.27 8.92533 278.537 8.744C278.814 8.56267 279.102 8.36533 279.401 8.152C279.71 7.93867 280.025 7.72 280.345 7.496C280.675 7.272 281.011 7.048 281.353 6.824C281.694 6.58933 282.03 6.35467 282.361 6.12H282.921V9.08V18.92ZM281.689 10.344V8.6H287.817L287.545 10.344H281.689Z" fill="#426B1F"/>
</svg>
