<?xml version="1.0" encoding="UTF-8"?>
<svg id="myopia-management-logo" data-name="myopia management logo" xmlns="http://www.w3.org/2000/svg" viewBox="0 0 485.01 124.37">
  <defs>
    <style>
      .cls-1 {
        fill: none;
        stroke-width: 6px;
      }

      .cls-1, .cls-2 {
        stroke: #1d2088;
        stroke-miterlimit: 10;
      }

      .cls-2 {
        stroke-width: 3px;
      }

      .cls-2, .cls-3 {
        fill: #1d2088;
      }
    </style>
  </defs>
  <g>
    <path class="cls-3" d="M45.62,69.81c0,1.16-.3,2.08-.91,2.75-.6.68-1.57,1.02-2.92,1.02s-2.23-.34-2.87-1.02c-.64-.68-.96-1.6-.96-2.75V23.58c0-2.38-.32-4.59-.97-6.63-.64-2.04-1.58-3.79-2.8-5.26-1.22-1.46-2.76-2.6-4.63-3.42-1.87-.82-4.02-1.23-6.46-1.23s-4.58.41-6.41,1.23c-1.83.82-3.37,1.96-4.63,3.42-1.26,1.46-2.2,3.21-2.85,5.26-.64,2.04-.97,4.25-.97,6.63v46.24c0,1.16-.36,2.08-1.09,2.75-.72.68-1.74,1.02-3.05,1.02s-2.33-.34-3.05-1.02c-.72-.68-1.08-1.6-1.08-2.75V22.56c0-3.27.52-6.28,1.58-9.03,1.05-2.76,2.55-5.14,4.49-7.14,1.94-2.01,4.26-3.57,6.98-4.7,2.72-1.12,5.78-1.68,9.17-1.68,2.24,0,4.4.29,6.47.87,2.07.58,3.98,1.43,5.71,2.55,1.73,1.12,3.24,2.48,4.54,4.08,1.29,1.6,2.24,3.42,2.86,5.46.61-2.04,1.57-3.86,2.87-5.46,1.3-1.6,2.82-2.96,4.56-4.08,1.74-1.12,3.67-1.97,5.79-2.55,2.12-.58,4.3-.87,6.56-.87,3.35,0,6.4.56,9.17,1.68,2.77,1.12,5.12,2.69,7.07,4.7,1.95,2.01,3.45,4.39,4.51,7.14,1.06,2.75,1.59,5.77,1.59,9.03v47.36c0,1.16-.36,2.08-1.09,2.76-.72.68-1.74,1.02-3.05,1.02-1.38,0-2.41-.34-3.1-1.02-.69-.68-1.03-1.6-1.03-2.76V23.58c0-2.38-.33-4.59-.97-6.63-.65-2.04-1.6-3.79-2.87-5.26-1.26-1.46-2.83-2.6-4.71-3.42-1.88-.82-4.04-1.23-6.5-1.23s-4.61.41-6.45,1.23c-1.84.82-3.4,1.96-4.66,3.42-1.26,1.46-2.22,3.21-2.87,5.26-.65,2.04-.97,4.25-.97,6.63v46.24Z"/>
    <path class="cls-3" d="M141.16,4.08c0-1.16.37-2.13,1.11-2.91.74-.78,1.75-1.17,3.02-1.17s2.28.39,3.02,1.17c.74.78,1.11,1.75,1.11,2.91v15.72c0,7.49-1.89,13.61-5.67,18.37-3.78,4.76-9.3,7.55-16.59,8.37v22.97c0,1.16-.37,2.13-1.11,2.91-.74.78-1.75,1.17-3.02,1.17-1.34,0-2.37-.39-3.08-1.17-.71-.78-1.06-1.75-1.06-2.91v-22.97c-7.35-.82-12.91-3.61-16.69-8.37-3.78-4.76-5.66-10.89-5.66-18.37V4.08c0-1.16.37-2.13,1.11-2.91.74-.78,1.75-1.17,3.03-1.17s2.28.39,3.02,1.17c.74.78,1.11,1.75,1.11,2.91v14.39c0,6.94,1.48,12.21,4.45,15.82,2.97,3.61,7.56,5.41,13.77,5.41s10.78-1.8,13.72-5.41c2.94-3.61,4.4-8.88,4.4-15.82V4.08Z"/>
    <path class="cls-3" d="M197.14,0c5.51,0,10.52.99,15.03,2.96,4.52,1.98,8.39,4.66,11.62,8.06,3.23,3.4,5.72,7.37,7.49,11.89s2.65,9.34,2.65,14.44-.88,9.92-2.65,14.44-4.26,8.49-7.49,11.89c-3.23,3.4-7.1,6.09-11.62,8.06-4.52,1.97-9.53,2.96-15.03,2.96s-10.53-.99-15.08-2.96c-4.55-1.97-8.44-4.66-11.67-8.06-3.23-3.4-5.72-7.37-7.49-11.89-1.77-4.53-2.65-9.34-2.65-14.44s.88-9.92,2.65-14.44c1.77-4.53,4.27-8.49,7.49-11.89,3.23-3.4,7.12-6.09,11.67-8.06,4.55-1.97,9.58-2.96,15.08-2.96ZM197.14,67.67c4.29,0,8.18-.75,11.66-2.25,3.48-1.5,6.48-3.6,9-6.29,2.52-2.69,4.46-5.89,5.83-9.61,1.36-3.71,2.04-7.75,2.04-12.12s-.68-8.4-2.04-12.11c-1.37-3.71-3.31-6.93-5.83-9.66-2.52-2.73-5.52-4.84-9-6.34-3.48-1.5-7.36-2.25-11.66-2.25s-8.09.75-11.61,2.25c-3.51,1.5-6.53,3.61-9.05,6.34-2.52,2.73-4.48,5.95-5.88,9.66-1.4,3.71-2.1,7.75-2.1,12.11s.7,8.4,2.1,12.12c1.4,3.71,3.36,6.92,5.88,9.61,2.52,2.69,5.54,4.79,9.05,6.29,3.51,1.5,7.38,2.25,11.61,2.25Z"/>
    <path class="cls-3" d="M281.14,0c5.5,0,10.51.99,15.03,2.96,4.52,1.98,8.39,4.66,11.62,8.06,3.23,3.4,5.72,7.37,7.49,11.89,1.77,4.53,2.65,9.34,2.65,14.44s-.88,9.92-2.65,14.44c-1.77,4.53-4.26,8.49-7.49,11.89-3.23,3.4-7.1,6.09-11.62,8.06-4.52,1.97-9.53,2.96-15.03,2.96s-10.53-.99-15.09-2.96-8.44-4.66-11.67-8.06c-3.23-3.4-5.73-7.37-7.49-11.89-1.77-4.53-2.65-9.34-2.65-14.44s.88-9.92,2.65-14.44c1.77-4.53,4.26-8.49,7.49-11.89,3.23-3.4,7.12-6.09,11.67-8.06,4.55-1.97,9.58-2.96,15.09-2.96ZM281.14,67.67c4.29,0,8.18-.75,11.66-2.25,3.48-1.5,6.48-3.6,9-6.29,2.52-2.69,4.47-5.89,5.83-9.61,1.36-3.71,2.05-7.75,2.05-12.12s-.68-8.4-2.05-12.11c-1.36-3.71-3.31-6.93-5.83-9.66-2.52-2.73-5.52-4.84-9-6.34-3.48-1.5-7.36-2.25-11.66-2.25s-8.1.75-11.61,2.25c-3.51,1.5-6.53,3.61-9.05,6.34-2.52,2.73-4.48,5.95-5.88,9.66-1.4,3.71-2.09,7.75-2.09,12.11s.7,8.4,2.09,12.12c1.4,3.71,3.36,6.92,5.88,9.61,2.52,2.69,5.54,4.79,9.05,6.29,3.51,1.5,7.38,2.25,11.61,2.25Z"/>
    <path class="cls-3" d="M330.29,9.38c0-3.06.55-5.2,1.66-6.42,1.11-1.22,3.24-1.84,6.4-1.84h17.86c3.27,0,6.24.56,8.93,1.68,2.69,1.12,5,2.66,6.94,4.63,1.94,1.97,3.44,4.36,4.49,7.18,1.05,2.82,1.58,5.89,1.58,9.22s-.53,6.38-1.58,9.16c-1.06,2.78-2.55,5.16-4.49,7.13-1.94,1.97-4.25,3.51-6.94,4.63-2.69,1.12-5.67,1.68-8.93,1.68h-17.66v23.07c0,1.16-.36,2.13-1.06,2.91-.71.78-1.73,1.17-3.08,1.17s-2.28-.39-3.03-1.17c-.74-.78-1.11-1.75-1.11-2.91V9.38ZM338.55,39.4h16.38c2.32,0,4.4-.39,6.25-1.18,1.84-.78,3.41-1.88,4.71-3.28,1.3-1.4,2.29-3.05,2.97-4.97.68-1.91,1.03-3.96,1.03-6.14s-.34-4.34-1.03-6.25c-.68-1.91-1.67-3.57-2.97-4.97-1.3-1.4-2.87-2.49-4.71-3.27-1.84-.79-3.92-1.18-6.25-1.18h-16.38v31.23Z"/>
    <path class="cls-3" d="M409.04,66.55c1.17,0,2.06.34,2.68,1.02.62.68.93,1.5.93,2.45,0,1.02-.31,1.87-.92,2.55-.61.68-1.5,1.02-2.66,1.02h-20.8c-1.09,0-1.96-.34-2.61-1.02-.65-.68-.97-1.53-.97-2.55,0-.95.33-1.77.98-2.45.65-.68,1.53-1.02,2.63-1.02h6.6V8.16h-6.19c-1.1,0-1.98-.34-2.63-1.01-.65-.67-.98-1.51-.98-2.52,0-.94.32-1.76.97-2.46.65-.7,1.52-1.06,2.61-1.06h19.98c1.16,0,2.05.35,2.66,1.06.61.71.92,1.53.92,2.46,0,1.01-.31,1.85-.93,2.52-.62.67-1.51,1.01-2.68,1.01h-6.09v58.38h6.5Z"/>
    <path class="cls-3" d="M429.19,70.83c-.75,2.52-2.41,3.37-5,2.55-1.36-.34-2.28-.97-2.76-1.89-.47-.92-.54-1.92-.2-3.01l16.94-54.4c1.57-5.04,3.52-8.64,5.87-10.82,2.35-2.18,5.53-3.27,9.54-3.27,3.74,0,6.87,1.11,9.39,3.32,2.52,2.21,4.49,5.8,5.92,10.77l15.92,54.4c.34,1.02.24,2.01-.31,2.96-.54.95-1.4,1.6-2.55,1.94-1.29.34-2.37.29-3.21-.15-.85-.44-1.45-1.24-1.79-2.4l-6.02-20.41h-35.42l-6.33,20.41ZM453.58,7.04c-1.77,0-3.2.68-4.29,2.05-1.09,1.36-2.14,3.68-3.16,6.96l-8.57,27.53h31.33l-8.06-27.53c-.95-3.28-1.94-5.59-2.96-6.96-1.02-1.37-2.45-2.05-4.29-2.05Z"/>
    <path class="cls-3" d="M191.39,38.16c0,4.38-3.55,7.94-7.94,7.94s-7.94-3.55-7.94-7.94,3.55-7.94,7.94-7.94,7.94,3.55,7.94,7.94Z"/>
    <path class="cls-3" d="M276.45,37.59c0,4.39-3.55,7.94-7.94,7.94s-7.94-3.55-7.94-7.94,3.55-7.94,7.94-7.94,7.94,3.55,7.94,7.94Z"/>
  </g>
  <g>
    <path class="cls-3" d="M275.56,122.83c0,.36-.1.65-.28.87-.19.21-.5.32-.92.32s-.7-.11-.9-.32c-.2-.21-.3-.5-.3-.87v-14.54c0-.75-.1-1.44-.3-2.08-.2-.64-.5-1.19-.88-1.65-.38-.46-.87-.82-1.46-1.08-.59-.26-1.26-.38-2.03-.38s-1.44.13-2.02.38c-.58.26-1.06.61-1.46,1.08-.39.46-.69,1.01-.9,1.65-.2.64-.3,1.34-.3,2.08v14.54c0,.36-.11.65-.34.87-.23.21-.55.32-.96.32s-.73-.11-.96-.32c-.23-.21-.34-.5-.34-.87v-14.86c0-1.03.17-1.97.5-2.84.33-.87.8-1.61,1.41-2.25.61-.63,1.34-1.12,2.2-1.48.86-.35,1.82-.53,2.88-.53.71,0,1.38.09,2.04.27.65.18,1.25.45,1.8.8.54.35,1.02.78,1.42,1.28.41.5.71,1.07.9,1.72.19-.64.49-1.22.9-1.72.41-.5.89-.93,1.43-1.28.55-.35,1.16-.62,1.82-.8.66-.18,1.35-.27,2.06-.27,1.05,0,2.01.18,2.88.53.87.35,1.61.85,2.22,1.48.61.63,1.08,1.38,1.42,2.25.33.87.5,1.81.5,2.84v14.89c0,.36-.11.65-.34.87-.23.21-.55.32-.96.32-.43,0-.76-.11-.97-.32-.22-.21-.32-.5-.32-.87v-14.57c0-.75-.1-1.44-.31-2.08-.2-.64-.5-1.19-.9-1.65-.4-.46-.89-.82-1.48-1.08-.59-.26-1.27-.38-2.04-.38s-1.45.13-2.03.38c-.58.26-1.07.61-1.47,1.08-.4.46-.7,1.01-.9,1.65-.2.64-.31,1.34-.31,2.08v14.54Z"/>
    <path class="cls-3" d="M293.34,123.15c-.24.79-.76,1.06-1.57.8-.43-.11-.72-.31-.87-.59-.15-.29-.17-.61-.07-.95l5.33-17.11c.49-1.58,1.11-2.72,1.85-3.4.74-.68,1.74-1.03,3-1.03,1.18,0,2.16.35,2.95,1.04.79.69,1.41,1.82,1.86,3.38l5.01,17.11c.11.32.08.63-.1.93-.17.3-.44.5-.8.61-.41.11-.74.09-1.01-.05-.27-.14-.46-.39-.56-.75l-1.89-6.42h-11.14l-1.99,6.42ZM301.01,103.09c-.56,0-1,.21-1.35.64s-.67,1.16-1,2.19l-2.7,8.66h9.85l-2.54-8.66c-.3-1.03-.61-1.76-.93-2.19s-.77-.64-1.35-.64Z"/>
    <path class="cls-3" d="M329.13,110.25c0-1.07-.13-2.04-.4-2.92-.27-.88-.66-1.63-1.17-2.26-.51-.63-1.16-1.12-1.93-1.46-.77-.34-1.67-.51-2.7-.51s-1.93.17-2.7.51c-.77.34-1.42.83-1.93,1.46-.51.63-.9,1.38-1.17,2.26-.27.88-.4,1.85-.4,2.92v12.58c0,.36-.12.65-.35.87-.23.21-.55.32-.95.32s-.72-.11-.95-.32c-.23-.21-.35-.5-.35-.87v-13c0-1.31.21-2.51.62-3.61.41-1.1,1.01-2.05,1.78-2.84.77-.79,1.69-1.41,2.77-1.84,1.08-.44,2.29-.66,3.64-.66s2.56.22,3.64.66c1.08.44,2,1.05,2.77,1.84.77.79,1.36,1.74,1.78,2.84.41,1.1.62,2.31.62,3.61v13c0,.36-.12.65-.35.87-.23.21-.55.32-.95.32s-.72-.11-.95-.32c-.23-.21-.35-.5-.35-.87v-12.58Z"/>
    <path class="cls-3" d="M337.54,123.15c-.24.79-.76,1.06-1.57.8-.43-.11-.72-.31-.87-.59-.15-.29-.17-.61-.06-.95l5.33-17.11c.49-1.58,1.11-2.72,1.85-3.4.74-.68,1.74-1.03,3-1.03,1.18,0,2.16.35,2.95,1.04.79.69,1.41,1.82,1.86,3.38l5.01,17.11c.11.32.07.63-.1.93-.17.3-.44.5-.8.61-.41.11-.74.09-1.01-.05-.27-.14-.46-.39-.56-.75l-1.89-6.42h-11.14l-1.99,6.42ZM345.22,103.09c-.56,0-1.01.21-1.35.64-.34.43-.67,1.16-1,2.19l-2.7,8.66h9.85l-2.54-8.66c-.3-1.03-.61-1.76-.93-2.19-.32-.43-.77-.64-1.35-.64Z"/>
    <path class="cls-3" d="M379.3,111.95c.73,0,1.09.32,1.09.96v1.09c0,1.31-.24,2.58-.72,3.82-.48,1.24-1.19,2.35-2.13,3.32-.94.97-2.1,1.75-3.48,2.34-1.38.59-2.96.88-4.73.88s-3.45-.33-4.88-.98c-1.43-.65-2.65-1.52-3.66-2.6-1.01-1.08-1.78-2.33-2.31-3.74-.54-1.41-.8-2.89-.8-4.43s.27-3.02.8-4.45c.53-1.42,1.3-2.68,2.3-3.76.99-1.08,2.21-1.94,3.64-2.58,1.43-.64,3.05-.96,4.85-.96,1.09,0,2.06.08,2.91.25.84.17,1.6.4,2.28.68.67.28,1.28.62,1.81,1,.54.38,1.06.8,1.57,1.25.24.21.35.46.34.72-.01.27-.1.51-.27.72-.17.21-.39.35-.64.42-.26.06-.51,0-.77-.19-.43-.34-.88-.67-1.35-1-.47-.32-.99-.6-1.56-.83-.57-.24-1.21-.43-1.91-.58-.71-.15-1.51-.22-2.41-.22-1.35,0-2.57.24-3.67.72-1.09.48-2.04,1.15-2.83,2-.79.85-1.4,1.86-1.83,3.03-.43,1.17-.64,2.43-.64,3.79s.21,2.57.63,3.72c.42,1.15,1.02,2.16,1.82,3.03.79.87,1.74,1.55,2.85,2.04,1.1.5,2.35.74,3.75.74s2.51-.23,3.55-.68c1.04-.45,1.93-1.05,2.67-1.79.74-.74,1.31-1.59,1.7-2.56.4-.97.62-1.96.66-2.97h-7.77c-.36,0-.65-.12-.85-.35-.2-.24-.31-.5-.31-.8,0-.26.1-.5.31-.72.2-.22.49-.33.85-.33h9.18Z"/>
    <path class="cls-3" d="M387.87,124.02c-1.26,0-2.2-.33-2.84-.99-.63-.66-.95-1.71-.95-3.14v-15.74c0-.96.22-1.69.66-2.18.44-.49,1.16-.74,2.16-.74h9.6c.3,0,.55.1.76.3.2.2.3.47.3.8s-.1.61-.3.81c-.2.2-.46.3-.76.3h-8.76c-.39,0-.66.08-.82.23-.16.15-.24.41-.24.77v6.71h8.83c.3,0,.55.1.74.3.19.2.29.47.29.81s-.1.61-.29.81c-.19.2-.44.3-.74.3h-8.83v6.26c0,.75.15,1.3.45,1.65.3.35.8.53,1.51.53h7.96c.3,0,.55.1.76.29.2.19.3.46.3.8s-.12.62-.35.82c-.24.21-.47.3-.71.3h-8.73Z"/>
    <path class="cls-3" d="M415.58,122.83c0,.36-.09.65-.29.87-.19.21-.5.32-.92.32s-.7-.11-.9-.32c-.2-.21-.3-.5-.3-.87v-14.54c0-.75-.1-1.44-.3-2.08-.2-.64-.5-1.19-.88-1.65-.38-.46-.87-.82-1.46-1.08-.59-.26-1.26-.38-2.03-.38s-1.44.13-2.01.38c-.58.26-1.06.61-1.46,1.08-.39.46-.69,1.01-.9,1.65-.2.64-.3,1.34-.3,2.08v14.54c0,.36-.11.65-.34.87-.23.21-.55.32-.96.32s-.73-.11-.96-.32c-.23-.21-.34-.5-.34-.87v-14.86c0-1.03.17-1.97.5-2.84.33-.87.8-1.61,1.41-2.25.61-.63,1.34-1.12,2.2-1.48.86-.35,1.82-.53,2.89-.53.71,0,1.38.09,2.04.27.65.18,1.25.45,1.8.8.54.35,1.02.78,1.43,1.28.41.5.7,1.07.9,1.72.19-.64.49-1.22.9-1.72.41-.5.89-.93,1.43-1.28.55-.35,1.15-.62,1.82-.8.66-.18,1.35-.27,2.06-.27,1.05,0,2.01.18,2.88.53.87.35,1.61.85,2.22,1.48.61.63,1.08,1.38,1.42,2.25.33.87.5,1.81.5,2.84v14.89c0,.36-.12.65-.34.87-.23.21-.55.32-.96.32-.43,0-.76-.11-.98-.32-.22-.21-.32-.5-.32-.87v-14.57c0-.75-.1-1.44-.31-2.08-.21-.64-.51-1.19-.9-1.65-.4-.46-.89-.82-1.48-1.08-.59-.26-1.27-.38-2.04-.38s-1.45.13-2.03.38c-.58.26-1.07.61-1.47,1.08-.4.46-.7,1.01-.9,1.65-.21.64-.31,1.34-.31,2.08v14.54Z"/>
    <path class="cls-3" d="M435.86,124.02c-1.26,0-2.2-.33-2.84-.99-.63-.66-.95-1.71-.95-3.14v-15.74c0-.96.22-1.69.66-2.18.44-.49,1.16-.74,2.16-.74h9.6c.3,0,.55.1.75.3.2.2.31.47.31.8s-.1.61-.31.81c-.2.2-.45.3-.75.3h-8.76c-.39,0-.66.08-.82.23-.16.15-.24.41-.24.77v6.71h8.83c.3,0,.55.1.74.3.19.2.29.47.29.81s-.1.61-.29.81c-.19.2-.44.3-.74.3h-8.83v6.26c0,.75.15,1.3.45,1.65.3.35.8.53,1.51.53h7.96c.3,0,.55.1.75.29.2.19.31.46.31.8s-.12.62-.35.82c-.24.21-.47.3-.71.3h-8.73Z"/>
    <path class="cls-3" d="M464.24,110.25c0-1.07-.13-2.04-.4-2.92-.27-.88-.66-1.63-1.17-2.26-.51-.63-1.16-1.12-1.93-1.46-.77-.34-1.67-.51-2.7-.51s-1.93.17-2.7.51c-.77.34-1.42.83-1.93,1.46-.52.63-.91,1.38-1.17,2.26-.27.88-.4,1.85-.4,2.92v12.58c0,.36-.12.65-.35.87-.23.21-.55.32-.95.32s-.72-.11-.95-.32c-.23-.21-.35-.5-.35-.87v-13c0-1.31.21-2.51.62-3.61.42-1.1,1.01-2.05,1.78-2.84.77-.79,1.69-1.41,2.77-1.84,1.08-.44,2.29-.66,3.64-.66s2.56.22,3.64.66c1.08.44,2,1.05,2.77,1.84.77.79,1.36,1.74,1.78,2.84.42,1.1.62,2.31.62,3.61v13c0,.36-.12.65-.35.87-.23.21-.55.32-.95.32s-.72-.11-.95-.32c-.23-.21-.35-.5-.35-.87v-12.58Z"/>
    <path class="cls-3" d="M482.85,101.23c.34,0,.6.12.77.35.17.23.26.49.26.76,0,.3-.09.55-.26.78-.17.22-.43.33-.77.33h-5.55v19.29c0,.37-.12.67-.35.91-.23.25-.55.37-.95.37s-.72-.12-.95-.37c-.23-.25-.35-.55-.35-.91v-19.29h-5.55c-.32,0-.57-.11-.74-.33-.17-.22-.26-.48-.26-.78,0-.27.08-.53.26-.76.17-.23.42-.35.74-.35h13.71Z"/>
  </g>
  <line class="cls-2" x1=".55" y1="87.37" x2="482.83" y2="87.37"/>
  <path class="cls-1" d="M228.7,27.5s4.68-5.6,11.48-5.6,10.92,6.03,10.92,6.03"/>
</svg>
